<?xml version="1.0" encoding="UTF-8" standalone="no"?>
<svg
   xmlns:dc="http://purl.org/dc/elements/1.1/"
   xmlns:cc="http://creativecommons.org/ns#"
   xmlns:rdf="http://www.w3.org/1999/02/22-rdf-syntax-ns#"
   xmlns:svg="http://www.w3.org/2000/svg"
   xmlns="http://www.w3.org/2000/svg"
   xmlns:sodipodi="http://sodipodi.sourceforge.net/DTD/sodipodi-0.dtd"
   xmlns:inkscape="http://www.inkscape.org/namespaces/inkscape"
   inkscape:version="1.0 (4035a4fb49, 2020-05-01)"
   height="33"
   width="86.199997"
   sodipodi:docname="abb.svg"
   id="svg84"
   version="1.1"
   viewBox="-1 -1 86.2 33"
   fill="#ff000f">
  <metadata
     id="metadata90">
    <rdf:RDF>
      <cc:Work
         rdf:about="">
        <dc:format>image/svg+xml</dc:format>
        <dc:type
           rdf:resource="http://purl.org/dc/dcmitype/StillImage" />
        <dc:title></dc:title>
      </cc:Work>
    </rdf:RDF>
  </metadata>
  <defs
     id="defs88" />
  <sodipodi:namedview
     inkscape:current-layer="svg84"
     inkscape:window-maximized="0"
     inkscape:window-y="24"
     inkscape:window-x="1691"
     inkscape:cy="16.5"
     inkscape:cx="43.1"
     inkscape:zoom="12.23356"
     fit-margin-bottom="0"
     fit-margin-right="0"
     fit-margin-left="0"
     fit-margin-top="0"
     showgrid="false"
     id="namedview86"
     inkscape:window-height="1054"
     inkscape:window-width="1278"
     inkscape:pageshadow="2"
     inkscape:pageopacity="0"
     guidetolerance="10"
     gridtolerance="10"
     objecttolerance="10"
     borderopacity="1"
     bordercolor="#666666"
     pagecolor="#ffffff" />
  <path
     id="path60"
     d="m 46,32 h 2 c 6,-0.3 10.2,-5 10.2,-10.6 0,-1.9 -0.4,-3.8 -1.3,-5.3 H 46 Z" />
  <rect
     id="rect62"
     y="16"
     x="35"
     height="16"
     width="10" />
  <path
     id="path64"
     d="m 56.3,15 c -1,-1.4 -2.4,-2.5 -3.9,-3.3 1.8,-1.3 3,-3.4 3,-5.7 0,-3.9 -3.1,-7 -7,-7 H 46 v 16 z" />
  <rect
     y="-1"
     id="rect66"
     x="35"
     height="16"
     width="10" />
  <path
     id="path68"
     d="m 73,32 h 2 c 6,-0.3 10.2,-5 10.2,-10.6 0,-1.9 -0.4,-3.8 -1.3,-5.3 H 73 Z" />
  <rect
     id="rect70"
     y="16"
     x="62"
     height="16"
     width="10" />
  <path
     id="path72"
     d="m 83.3,15 c -1,-1.4 -2.4,-2.5 -3.9,-3.3 1.8,-1.3 3,-3.4 3,-5.7 0,-3.9 -3.1,-7 -7,-7 H 73 v 16 z" />
  <rect
     y="-1"
     id="rect74"
     x="62"
     height="16"
     width="10" />
  <polygon
     transform="translate(-1,-1)"
     id="polygon76"
     points="8.3,33 10.7,26 16,26 16,17 5.7,17 0,33 " />
  <polygon
     transform="translate(-1,-1)"
     id="polygon78"
     points="6,16 16,16 16,0 11.7,0 " />
  <polygon
     transform="translate(-1,-1)"
     id="polygon80"
     points="24.7,33 33,33 27.3,17 17,17 17,26 22.3,26 " />
  <polygon
     transform="translate(-1,-1)"
     id="polygon82"
     points="17,0 17,16 27,16 21.3,0 " />
</svg>
