<?xml version="1.0" encoding="UTF-8" standalone="no"?>
<svg
   xmlns:dc="http://purl.org/dc/elements/1.1/"
   xmlns:cc="http://creativecommons.org/ns#"
   xmlns:rdf="http://www.w3.org/1999/02/22-rdf-syntax-ns#"
   xmlns:svg="http://www.w3.org/2000/svg"
   xmlns="http://www.w3.org/2000/svg"
   xmlns:sodipodi="http://sodipodi.sourceforge.net/DTD/sodipodi-0.dtd"
   xmlns:inkscape="http://www.inkscape.org/namespaces/inkscape"
   inkscape:version="1.0 (4035a4fb49, 2020-05-01)"
   height="95.5"
   width="599.90002"
   sodipodi:docname="allen_bradley.svg"
   xml:space="preserve"
   viewBox="0 0 599.90002 95.5"
   y="0px"
   x="0px"
   id="layer"
   version="1.1"><metadata
   id="metadata172"><rdf:RDF><cc:Work
       rdf:about=""><dc:format>image/svg+xml</dc:format><dc:type
         rdf:resource="http://purl.org/dc/dcmitype/StillImage" /><dc:title></dc:title></cc:Work></rdf:RDF></metadata><defs
   id="defs170" /><sodipodi:namedview
   inkscape:current-layer="layer"
   inkscape:window-maximized="0"
   inkscape:window-y="24"
   inkscape:window-x="960"
   inkscape:cy="52.1"
   inkscape:cx="305.7"
   inkscape:zoom="1.1641104"
   fit-margin-bottom="0"
   fit-margin-right="0"
   fit-margin-left="0"
   fit-margin-top="0"
   showgrid="false"
   id="namedview168"
   inkscape:window-height="1054"
   inkscape:window-width="958"
   inkscape:pageshadow="2"
   inkscape:pageopacity="0"
   guidetolerance="10"
   gridtolerance="10"
   objecttolerance="10"
   borderopacity="1"
   bordercolor="#666666"
   pagecolor="#ffffff" />
<style
   id="style109"
   type="text/css">
	.st0{fill:#1B3573;}
	.st1{fill:#FFFFFF;}
</style>
<path
   id="path111"
   d="M 0,62.2 V 33.1 c 0,-4 2.1,-7.3 4.2,-10 L 21.9,5 C 25,2.1 28.6,0.2 32.9,0 h 26.9 c 3.7,0 7.3,1.5 10.4,4 L 91,24.6 c 2.3,2.7 3.5,6.3 3.5,9 v 28.3 c -0.4,3.7 -3.5,5.8 -5.8,5.8 H 5.5 C 2.3,67.2 0.5,64.9 0,62.2"
   class="st0" />
<path
   id="path113"
   d="m 8.8,71 h 76.8 c 2.1,0 2.3,2.3 1.2,3.7 L 71.2,90.3 c -2.3,2.3 -7.9,4.2 -10.6,4.2 h -27 c -2.9,0 -7.5,-1.9 -9.8,-4.4 L 7.5,74.9 C 5.7,73.7 6.1,70.8 8.8,71"
   class="st0" />
<path
   id="path115"
   d="m 14.5,59.6 h -6 c 1.7,-1 1.7,-2.5 2,-3.2 L 22.9,21.3 h 7.9 L 45,57.8 c 0.5,0.9 0.8,1.6 1.4,1.8 H 36.1 c 0.3,-1 -0.1,-2 -0.3,-2.6 l -3.1,-8.1 h -9.8 v -3.8 h 8.4 L 24.8,28.4 14.6,56.7 c -0.3,1.5 -0.1,2.9 -0.1,2.9"
   class="st1" />
<rect
   id="rect117"
   height="3.8"
   width="5.5999999"
   class="st1"
   y="38.399986"
   x="42.200001" />
<path
   id="path119"
   d="m 49.9,21.5 c 1.1,1.4 1.3,3.9 1.3,3.9 v 31.4 c 0,1.1 -0.9,2.7 -0.9,2.7 h 23.5 c 4.4,0 7.7,-3.4 7.8,-5.8 v -9.2 c -0.3,-2.4 -4,-4.9 -6.3,-4.9 2.6,-0.4 4.3,-2.7 4.3,-4.4 v -8 C 79.5,24.7 76.9,21.7 74.5,21.4 H 49.9 Z"
   class="st1" />
<path
   id="path121"
   d="M 70.6,55.8 H 59.1 V 25.6 h 9.1 c 1.8,0.1 2.8,1.2 2.9,2.5 V 36 c -0.1,1.3 -1.4,2.2 -2.4,2.3 h -6 v 3.9 h 7.8 c 1.6,0.2 3,1.8 3,3 v 7.6 c -0.1,1.7 -1.9,2.9 -2.9,3"
   class="st0" />
<path
   id="path123"
   d="m 34.6,76.4 v 7.5 h 2 v -7.5 h 1.6 v 7.7 c 0,0.7 -0.5,1.2 -1,1.2 H 34 c -0.6,0 -0.8,-0.6 -0.9,-0.9 v -8 z"
   class="st1" />
<rect
   id="rect125"
   height="8.8999996"
   width="1.6"
   class="st1"
   y="76.399986"
   x="53.799999" />
<polygon
   transform="translate(-20.3,-273.9)"
   id="polygon127"
   points="81.9,351.6 80.4,351.6 80.4,359.2 78.9,359.2 78.9,351.6 77.4,351.6 77.4,350.3 81.9,350.3 "
   class="st1" />
<polygon
   transform="translate(-20.3,-273.9)"
   id="polygon129"
   points="83.5,350.3 85.2,350.3 86.7,353.5 88,350.3 89.7,350.3 87.4,355 87.4,359.3 85.9,359.3 85.9,355 "
   class="st1" />
<path
   id="path131"
   d="m 26.8,76.4 h 3.1 c 0.6,0 1.2,0.9 1.1,1.4 V 84 c 0,0.7 -0.5,1.4 -0.9,1.4 0.2,0.5 0.5,0.7 0.9,0.9 v 0.4 H 30 C 29.4,86.4 29,86 28.7,85.4 h -2.1 c -0.7,0 -1.1,-0.7 -1.2,-1.5 v -6.1 c 0,-0.6 0.6,-1.4 1.4,-1.4"
   class="st1" />
<rect
   id="rect133"
   height="5.8000002"
   width="1.5"
   class="st0"
   y="77.999992"
   x="27.400002" />
<polygon
   transform="translate(-20.3,-273.9)"
   id="polygon135"
   points="69.9,350.3 69.9,357.8 72.2,357.8 72.2,359.2 68.3,359.2 68.3,350.3 "
   class="st1" />
<polygon
   transform="translate(-20.3,-273.9)"
   id="polygon137"
   points="66.4,359.3 64.7,359.3 64.2,357.5 62.2,357.5 61.7,359.2 60.2,359.2 62.2,350.3 64.3,350.3 "
   class="st1" />
<polygon
   transform="translate(-20.3,-273.9)"
   id="polygon139"
   points="63.2,352.6 63.8,356.3 62.8,356.3 "
   class="st0" />
<path
   id="path141"
   d="m 170,21.2 h 14.9 l 3.1,59.6 h -12.5 l -0.1,-12.6 h -15.9 l -5.4,12.6 h -12.5 z m -6.3,37.1 h 11.7 l -0.1,-26.8 h -0.2 z"
   class="st0" />
<polygon
   transform="translate(-20.3,-273.9)"
   id="polygon143"
   points="224.1,354.7 212.6,354.7 225.2,295.1 236.7,295.1 "
   class="st0" />
<polygon
   transform="translate(-20.3,-273.9)"
   id="polygon145"
   points="244.1,354.7 232.6,354.7 245.2,295.1 256.8,295.1 "
   class="st0" />
<path
   id="path147"
   d="m 246.1,60.1 -0.8,3.6 c -1.1,5.2 -0.8,10.4 3.4,10.4 3.8,0 6,-2.9 7.9,-8.4 h 10.3 C 264.3,76.1 258,82 247.2,82 230.5,82 232.6,69.1 235,58 c 2.5,-12 7.3,-23.2 22.8,-23.2 13.4,0 14.5,9 11.6,22.8 l -0.5,2.6 h -22.8 z m 13.2,-6.8 c 1.2,-6.8 1.2,-10.7 -3.6,-10.7 -4.6,0 -6.9,4.8 -7.8,8.9 l -0.4,1.7 h 11.8 z"
   class="st0" />
<path
   id="path149"
   d="m 280,35.9 h 11 l -1.1,5.3 h 0.2 c 3.4,-4.4 8,-6.4 12.8,-6.4 7.2,0 10.6,3.9 8.7,12.8 l -7.1,33.3 H 293 L 299.6,50 c 1,-4.5 -0.2,-6.3 -3.6,-6.3 -3.9,0 -6.6,2.4 -7.7,7.4 L 282,80.9 h -11.5 z"
   class="st0" />
<polygon
   transform="translate(-20.3,-273.9)"
   id="polygon151"
   points="336.4,335.5 338.5,325.6 362.1,325.6 360,335.5 "
   class="st0" />
<path
   id="path153"
   d="m 356.1,21.2 h 20.1 c 9.8,0 16.2,3.7 13.7,15.1 -1.4,6.4 -5.5,11.3 -11.8,13 v 0.2 c 6.4,0.9 9.6,5.9 7.9,13.9 -2,9.4 -8.3,17.4 -22.3,17.4 h -20.3 z m 6.8,24.5 h 3.4 c 6.6,0 10.1,-2.3 11.3,-7.9 1.2,-5.7 -1.1,-7.8 -7,-7.8 h -4.3 z m -5.6,26.2 h 4.7 c 5.8,0 10.1,-2.1 11.6,-9 1.5,-6.9 -2,-8.9 -7.3,-8.9 h -5.2 z"
   class="st0" />
<path
   id="path155"
   d="m 399,35.9 h 11 l -1.3,6 h 0.2 c 3.3,-4.3 7.1,-7.2 11.9,-7.2 0.7,0 1.4,0.1 2.1,0.2 l -2.3,11 c -1.1,-0.1 -2.4,-0.2 -3.6,-0.2 -4,0 -9,2.1 -10.2,8.1 l -5.7,26.9 h -11.5 z"
   class="st0" />
<path
   id="path157"
   d="m 423.8,49.7 0.2,-1.1 c 2.2,-10.3 10,-13.8 18.7,-13.8 13.7,0 15.1,5.7 13.3,13.8 l -5,23.6 c -0.9,4.2 -1,6.1 -0.4,8.7 h -11 c -0.4,-1.4 -0.4,-3.2 -0.4,-4.7 H 439 c -3.7,4.7 -7.2,5.8 -12.7,5.8 -8,0 -9.4,-6.8 -8.1,-12.9 1.8,-8.4 5.9,-11.8 14.3,-14 l 6.9,-1.8 c 3.6,-0.9 5.1,-2.3 5.7,-5.3 0.7,-3.4 -0.3,-5.5 -4.2,-5.5 -3.5,0 -5.8,2.3 -6.6,5.8 l -0.3,1.2 h -10.2 z m 19.1,8.6 c -1.8,1.2 -3.9,1.9 -5.4,2.3 -4.9,1 -7.2,3.3 -8.1,7.3 -0.7,3.4 -0.1,6.3 3,6.3 3.1,0 7.5,-2 8.6,-6.9 z"
   class="st0" />
<path
   id="path159"
   d="m 481.4,76 h -0.2 c -3.4,4.2 -6.9,5.9 -11.4,5.9 -9.4,0 -12.3,-6.9 -8.8,-23.6 3.5,-16.7 9.4,-23.6 18.8,-23.6 4.3,0 6.9,1.7 8.6,5.3 h 0.2 l 4,-18.9 h 11.5 l -12.7,59.6 h -11 z m -6,-2.9 c 5.1,0 7.1,-5 9.2,-14.8 2.1,-9.8 2.1,-14.8 -2.9,-14.8 -5,0 -7.1,5 -9.2,14.8 -2,9.8 -2.1,14.8 2.9,14.8"
   class="st0" />
<polygon
   transform="translate(-20.3,-273.9)"
   id="polygon161"
   points="531.3,354.7 519.8,354.7 532.4,295.1 544,295.1 "
   class="st0" />
<path
   id="path163"
   d="m 533.3,60.1 -0.8,3.6 c -1.1,5.2 -0.8,10.4 3.5,10.4 3.8,0 6,-2.9 7.9,-8.4 h 10.3 C 551.6,76.1 545.3,82 534.5,82 517.8,82 519.9,69.1 522.3,58 c 2.5,-12 7.3,-23.2 22.8,-23.2 13.4,0 14.5,9 11.6,22.8 l -0.6,2.6 h -22.8 z m 13.3,-6.8 c 1.2,-6.8 1.2,-10.7 -3.6,-10.7 -4.6,0 -6.9,4.8 -7.8,8.9 l -0.4,1.7 h 11.8 z"
   class="st0" />
<path
   id="path165"
   d="m 556.4,86.9 c 1,0.2 1.9,0.2 2.9,0.2 4.2,0 6.3,-2.3 7.5,-6.3 l -3.1,-44.9 h 12 l 0.1,31 h 0.2 l 12.4,-31 h 11.5 l -19.7,41.9 c -7.3,15.5 -10.4,17.7 -21,17.7 h -4.7 z"
   class="st0" />
</svg>
