<?xml version="1.0" encoding="utf-8"?>
<!-- Generator: Adobe Illustrator 21.1.0, SVG Export Plug-In . SVG Version: 6.00 Build 0)  -->
<svg version="1.1" id="CITIZEN" xmlns="http://www.w3.org/2000/svg" xmlns:xlink="http://www.w3.org/1999/xlink" x="0px" y="0px"
	 viewBox="0 0 126 23" style="enable-background:new 0 0 126 23;" xml:space="preserve">
<g>
	<path d="M30.2,20.7c-1.4,0-2.1-0.3-2.1-2V4.5c0-1.7,0.5-1.9,2-1.9H31V0.8h-9.4v1.8h1c1.3,0,2,0.5,2,1.9v14.2c0,1.5-0.8,2-2.1,2
		h-0.9v1.7H31v-1.7H30.2z"/>
	<path d="M61.9,20.7c-1.4,0-2.1-0.3-2.1-2V4.5c0-1.7,0.5-1.9,2-1.9h0.9V0.8h-9.4v1.8h1c1.3,0,2,0.5,2,1.9v14.2c0,1.5-0.8,2-2.1,2
		h-0.9v1.7h9.5v-1.7H61.9z"/>
	<path d="M33,0.8v5.7h1.6c0,0,0-0.5,0-1.2c0-1.4,0.5-2.8,2.5-2.8h3.3v16.1c0,1.5-0.9,2-2.2,2h-1v1.7h9.9v-1.7h-1
		c-1.3,0-2.2-0.6-2.2-2V2.6h3.3c1.9,0,2.5,1.3,2.5,2.8c0,0.7,0,1.2,0,1.2h1.6V0.8H33z"/>
	<path d="M80.5,16.6c0,0,0,0.2,0,0.4c0,1.8-0.5,3.7-4.3,3.7h-6.7L81.9,2.6V0.8H65.6v5.9h1.7c0,0,0-0.5,0-0.7c0-1.9,0.9-3.4,3.4-3.4
		c1.5,0,7,0,7,0L65.2,20.7v1.7h17v-5.9H80.5z"/>
	<path d="M100.6,16.5c0,0,0,0.3,0,0.6c0,1.9-0.9,3.6-3.3,3.6c-0.9,0-6.4,0-6.4,0v-8.5h3.9c1.6,0,1.9,1.3,1.9,2.2c0,0.3,0,0.9,0,0.9
		h1.7V7.3h-1.7c0,0,0,0.4,0,0.7c0,0.9-0.3,2.2-1.9,2.2h-3.9V2.6c0,0,5.3,0,6.1,0c3.1,0,3.1,2.6,3.1,3.5c0,0.1,0,0.5,0,0.5h1.6V0.8
		H84.5v1.7c0,0,0.2,0,0.4,0c1.5,0,2.2,0.2,2.2,1.5v14.8c0,1.5-1,1.8-2,1.8c-0.3,0-0.5,0-0.5,0v1.7h17.5v-5.9H100.6z"/>
	<path d="M118.3,0.8v1.7c0,0,0.2,0,0.5,0c1.7,0,2.3,0.6,2.3,2v12L110.3,0.8h-5.7v1.7c0,0,0.3,0,0.5,0c1.1,0,1.9,0.4,1.9,2.1v14.2
		c0,1.4-1,1.9-1.8,1.9c-0.4,0-0.7,0-0.7,0v1.7h7.4v-1.7c0,0-0.4,0-0.7,0c-0.8,0-2-0.2-2-1.9V5.6l11.6,16.9h2.5V4.6
		c0-1.5,0.6-2,2.3-2c0.3,0,0.5,0,0.5,0V0.8H118.3z"/>
	<path d="M12,21.3c-4.3,0-7.7-4.1-7.7-9.7c0-6,2.5-9.9,7.3-9.9c4,0,5.6,2.1,6.2,4.6h1.5c-0.2-1.5-0.5-4.2-0.5-4.8
		C17.6,1.3,15.1,0,11.4,0C4.8,0,0,4.5,0,11.6C0,18.6,5.5,23,11.3,23c2.7,0,5.3-0.6,7.6-2.3c0.1-0.6,0.5-2.2,0.9-3.5h-1.7
		C16.8,20.2,14.5,21.3,12,21.3z"/>
</g>
</svg>
