<?xml version="1.0" encoding="UTF-8" standalone="no"?>
<svg
   xmlns:dc="http://purl.org/dc/elements/1.1/"
   xmlns:cc="http://creativecommons.org/ns#"
   xmlns:rdf="http://www.w3.org/1999/02/22-rdf-syntax-ns#"
   xmlns:svg="http://www.w3.org/2000/svg"
   xmlns="http://www.w3.org/2000/svg"
   xmlns:sodipodi="http://sodipodi.sourceforge.net/DTD/sodipodi-0.dtd"
   xmlns:inkscape="http://www.inkscape.org/namespaces/inkscape"
   inkscape:version="1.0 (4035a4fb49, 2020-05-01)"
   height="283.70001"
   width="599.9007"
   sodipodi:docname="fagor.svg"
   xml:space="preserve"
   viewBox="-153 -46 599.9007 283.70001"
   y="0px"
   x="0px"
   id="layer"
   version="1.1"><metadata
   id="metadata60"><rdf:RDF><cc:Work
       rdf:about=""><dc:format>image/svg+xml</dc:format><dc:type
         rdf:resource="http://purl.org/dc/dcmitype/StillImage" /><dc:title></dc:title></cc:Work></rdf:RDF></metadata><defs
   id="defs58" /><sodipodi:namedview
   inkscape:current-layer="layer"
   inkscape:window-maximized="0"
   inkscape:window-y="24"
   inkscape:window-x="1691"
   inkscape:cy="146.5"
   inkscape:cx="304.7"
   inkscape:zoom="1.3236196"
   fit-margin-bottom="0"
   fit-margin-right="0"
   fit-margin-left="0"
   fit-margin-top="0"
   showgrid="false"
   id="namedview56"
   inkscape:window-height="1054"
   inkscape:window-width="1278"
   inkscape:pageshadow="2"
   inkscape:pageopacity="0"
   guidetolerance="10"
   gridtolerance="10"
   objecttolerance="10"
   borderopacity="1"
   bordercolor="#666666"
   pagecolor="#ffffff" />
<style
   id="style45"
   type="text/css">
	.st0{fill:#E2001A;}
</style>
<g
   transform="translate(-21.3,-179.5)"
   id="g53">
	<path
   id="path47"
   d="m 375,133.5 c -30.6,0 -57.8,14.6 -74.8,37.4 h 116 c 4.2,-0.1 8.1,-2.1 8.1,-2.1 L 402,191.1 c -8.1,7.9 -18.9,8.3 -19.9,8.3 h -96.3 c -1.7,5.6 -2.9,11.4 -3.6,17.5 H 370 v 0 c 4.3,0 8.2,-2.1 8.2,-2.1 l -22,22 v 0 c -8.2,8.4 -19.4,8.8 -20.5,8.8 h -52.4 c 8.7,42.5 46.4,74.7 91.5,74.7 51.6,0 93.4,-41.8 93.4,-93.4 0.2,-51.6 -41.6,-93.4 -93.2,-93.4"
   class="st0" />
	<path
   id="path49"
   d="m 100.9,206.7 c 0,12.9 9.5,22.3 21.2,22.3 11.6,0 21.1,-9.4 21.1,-22.3 0,-10.3 -9.5,-19.8 -21.1,-19.8 -11.7,0.1 -21.2,9.5 -21.2,19.8 m 62.5,-0.1 c 0,24.2 -17.4,41.3 -41.4,41.3 -24,0 -41.4,-17.1 -41.4,-41.3 0,-22.6 19.9,-38.5 41.4,-38.5 21.5,0 41.4,15.9 41.4,38.5 m -89.9,-2.9 c -0.2,10.9 -1,20.3 -7.6,29.6 C 58.5,243.5 47.5,248 35,248 11.5,248 -4.9,232 -4.9,208.5 c 0,-24.3 16.5,-40.3 40.6,-40.3 15.4,0 27.3,7 33.8,21 L 51,196.8 c -2.7,-7.1 -8.3,-11.9 -16.2,-11.9 -12.8,0 -19.5,12.2 -19.5,23.6 0,11.6 7,23.4 19.8,23.4 8.4,0 14.9,-4.4 15.7,-13 H 34.9 v -15.3 h 38.6 z m -115.7,-10 h -0.2 l -8,23.8 h 16.2 z m -13.6,38.8 -5.2,13 h -20.7 l 28.8,-74.9 h 21.3 l 28.2,74.9 h -20.8 l -4.9,-13 z m -52.5,-45.4 v 12.5 h 27.4 v 16.5 h -27.4 v 29.4 h -23.4 v -74.9 h 54.5 v 16.5 z m 344.2,58.4 h -23.1 l -16.4,-28.6 h -4.5 v 28.6 h -19.5 v -74.9 h 34.4 c 14.8,0 26,7 26,23 0,10.3 -5.8,19.3 -16.4,21.2 z m -44,-41.3 h 7.6 c 6.4,0 13.5,-1.2 13.5,-9.3 0,-8.1 -7.1,-9.3 -13.5,-9.3 h -7.6 z" />
	<path
   id="path51"
   d="m 433.1,376.3 h 6.6 l 20.8,32.3 v -32.3 h 5.3 v 39.9 h -6.3 l -21.1,-32.3 v 32.3 h -5.3 z m -564.7,0 h 28.6 v 4.9 h -23 v 12.1 h 20.2 V 398 H -126 v 18.1 h -5.6 z m 53.5,23.5 -6.3,-17.6 -6.6,17.6 z m -9.1,-23.5 h 6.3 l 15,39.9 H -72 l -4.2,-11.9 h -16.3 l -4.5,11.9 h -5.7 z m 55.2,1.1 c 4.1,2.1 6.6,5.7 7.5,10.9 H -30 c -0.7,-2.9 -2.1,-5 -4.2,-6.4 -2.1,-1.3 -4.8,-2 -8,-2 -3.8,0 -7,1.4 -9.7,4.2 -2.6,2.8 -3.9,6.9 -3.9,12.4 0,4.7 1.1,8.6 3.2,11.6 2.1,3 5.7,4.5 10.5,4.5 3.7,0 6.8,-1 9.2,-3.1 2.5,-2.1 3.7,-5.5 3.8,-10.2 H -42 v -4.5 h 18.1 v 21.3 h -3.6 l -1.3,-5.1 c -1.9,2 -3.6,3.4 -5,4.2 -2.5,1.3 -5.6,2 -9.3,2 -4.9,0 -9.1,-1.5 -12.6,-4.6 -3.8,-3.8 -5.8,-9.1 -5.8,-15.8 0,-6.7 1.9,-12 5.6,-15.9 3.6,-3.8 8.2,-5.6 13.8,-5.6 3.9,0 7.2,0.7 10.1,2.1 m 51.8,4.6 c 2.7,3.5 4.1,8 4.1,13.5 0,5.9 -1.6,10.9 -4.7,14.8 -3.7,4.6 -8.9,6.9 -15.7,6.9 -6.4,0 -11.3,-2 -15,-6.1 -3.2,-3.9 -4.9,-8.8 -4.9,-14.8 0,-5.4 1.4,-10 4.2,-13.8 3.5,-4.9 8.8,-7.4 15.8,-7.4 7.3,0.1 12.7,2.4 16.2,6.9 m -5,25.4 c 2.2,-3.4 3.3,-7.3 3.3,-11.8 0,-4.7 -1.3,-8.5 -3.8,-11.3 -2.5,-2.9 -6,-4.3 -10.4,-4.3 -4.3,0 -7.7,1.4 -10.4,4.3 -2.7,2.8 -4,7 -4,12.5 0,4.4 1.2,8.1 3.5,11.2 2.3,3 6.1,4.5 11.3,4.5 4.8,0 8.3,-1.7 10.5,-5.1 m 35.9,-12.8 c 2.6,0 4.7,-0.5 6.2,-1.5 1.5,-1 2.3,-2.8 2.3,-5.5 0,-2.8 -1.1,-4.8 -3.2,-5.8 -1.1,-0.5 -2.7,-0.8 -4.6,-0.8 H 37.8 v 13.6 z M 32.2,376.3 h 19.1 c 3.1,0 5.7,0.4 7.8,1.3 3.9,1.7 5.8,4.8 5.8,9.4 0,2.4 -0.5,4.3 -1.5,5.9 -1,1.5 -2.4,2.7 -4.3,3.7 1.6,0.6 2.8,1.5 3.6,2.5 0.8,1 1.3,2.7 1.4,5 l 0.2,5.4 c 0.1,1.5 0.2,2.6 0.4,3.4 0.3,1.3 0.9,2.1 1.8,2.4 v 0.9 h -6.8 c -0.2,-0.3 -0.3,-0.8 -0.4,-1.3 -0.1,-0.5 -0.2,-1.6 -0.3,-3.1 l -0.3,-6.6 c -0.1,-2.6 -1.1,-4.4 -3,-5.2 -1.1,-0.5 -2.7,-0.7 -5,-0.7 H 37.8 v 17.1 h -5.6 z m 76.8,23.5 -6.3,-17.6 -6.7,17.6 z m -9.2,-23.5 h 6.3 l 14.9,39.9 h -6.1 l -4.2,-11.9 H 94.5 L 90,416.2 h -5.7 z m 33.4,0 v 24.6 c 0,2.9 0.6,5.3 1.7,7.2 1.7,2.9 4.5,4.3 8.4,4.3 4.7,0 7.9,-1.6 9.6,-4.7 0.9,-1.7 1.4,-4 1.4,-6.9 v -24.6 h 5.7 v 22.4 c 0,4.9 -0.7,8.7 -2,11.3 -2.5,4.8 -7.2,7.2 -14.2,7.2 -7,0 -11.7,-2.4 -14.2,-7.2 -1.4,-2.6 -2,-6.4 -2,-11.3 v -22.4 h 5.6 z m 66.4,0 v 4.7 h -13.9 v 35.1 H 180 V 381 h -13.9 v -4.7 z m 39,5.7 c 2.7,3.5 4.1,8 4.1,13.5 0,5.9 -1.6,10.9 -4.7,14.8 -3.7,4.6 -8.9,6.9 -15.7,6.9 -6.3,0 -11.3,-2 -14.9,-6.1 -3.2,-3.9 -4.9,-8.8 -4.9,-14.8 0,-5.4 1.4,-10 4.1,-13.8 3.6,-4.9 8.8,-7.4 15.8,-7.4 7.4,0.1 12.7,2.4 16.2,6.9 m -4.9,25.4 c 2.2,-3.4 3.3,-7.3 3.3,-11.8 0,-4.7 -1.3,-8.5 -3.8,-11.3 -2.5,-2.9 -6,-4.3 -10.4,-4.3 -4.3,0 -7.7,1.4 -10.4,4.3 -2.7,2.8 -4,7 -4,12.5 0,4.4 1.2,8.1 3.5,11.2 2.3,3 6.1,4.5 11.2,4.5 4.9,0 8.4,-1.7 10.6,-5.1 m 16.6,-31.1 h 8 l 11.8,33.7 11.8,-33.7 h 7.9 v 39.9 h -5.3 v -23.5 l 0.1,-4 c 0,-1.9 0.1,-3.9 0.1,-6.1 l -11.8,33.6 h -5.5 l -11.8,-33.6 v 1.2 l 0.1,4.5 c 0.1,2 0.1,3.5 0.1,4.4 v 23.5 h -5.3 v -39.9 z m 70.1,23.5 -6.2,-17.6 -6.7,17.6 z m -9.2,-23.5 h 6.3 l 15,39.9 h -6.1 l -4.2,-11.9 h -16.3 l -4.5,11.9 h -5.7 z m 53.1,0 v 4.7 h -13.9 v 35.1 h -5.7 V 381 h -13.9 v -4.7 z m 7.4,0 h 5.6 v 39.9 h -5.6 z m 49.6,5.7 c 2.7,3.5 4.1,8 4.1,13.5 0,5.9 -1.6,10.9 -4.7,14.8 -3.7,4.6 -8.9,6.9 -15.7,6.9 -6.3,0 -11.3,-2 -15,-6.1 -3.2,-3.9 -4.8,-8.8 -4.8,-14.8 0,-5.4 1.4,-10 4.1,-13.8 3.6,-4.9 8.8,-7.4 15.8,-7.4 7.4,0.1 12.7,2.4 16.2,6.9 m -4.9,25.4 c 2.2,-3.4 3.3,-7.3 3.3,-11.8 0,-4.7 -1.3,-8.5 -3.8,-11.3 -2.5,-2.9 -6,-4.3 -10.4,-4.3 -4.3,0 -7.7,1.4 -10.4,4.3 -2.7,2.8 -4,7 -4,12.5 0,4.4 1.2,8.1 3.4,11.2 2.3,3 6.1,4.5 11.3,4.5 4.9,0 8.4,-1.7 10.6,-5.1" />
</g>
</svg>
