<svg xmlns="http://www.w3.org/2000/svg" version="1.0" width="200" height="33.736" id="svg2515"><defs id="defs2517"><linearGradient x1="0" y1="0" x2="1" y2="0" id="linearGradient9442" gradientUnits="userSpaceOnUse" gradientTransform="matrix(0 -19.2666 -4.3981 0 103.086 741.29)" spreadMethod="pad"><stop id="stop9444" offset="0" stop-color="#00c0f3" stop-opacity="1"/><stop id="stop9446" offset="1" stop-color="#0066b3" stop-opacity="1"/></linearGradient><linearGradient x1="0" y1="0" x2="1" y2="0" id="linearGradient9424" gradientUnits="userSpaceOnUse" gradientTransform="matrix(0 -19.2547 -13.0409 0 97.094 741.277)" spreadMethod="pad"><stop id="stop9426" offset="0" stop-color="#00c0f3" stop-opacity="1"/><stop id="stop9428" offset="1" stop-color="#0066b3" stop-opacity="1"/></linearGradient><linearGradient x1="0" y1="0" x2="1" y2="0" id="linearGradient9406" gradientUnits="userSpaceOnUse" gradientTransform="matrix(0 -15.1231 -12.6446 0 82.424 736.846)" spreadMethod="pad"><stop id="stop9408" offset="0" stop-color="#00c0f3" stop-opacity="1"/><stop id="stop9410" offset="1" stop-color="#0066b3" stop-opacity="1"/></linearGradient><linearGradient x1="0" y1="0" x2="1" y2="0" id="linearGradient9388" gradientUnits="userSpaceOnUse" gradientTransform="matrix(0 -15.1231 -9.7833 0 69.516 736.846)" spreadMethod="pad"><stop id="stop9390" offset="0" stop-color="#00c0f3" stop-opacity="1"/><stop id="stop9392" offset="1" stop-color="#0066b3" stop-opacity="1"/></linearGradient><linearGradient x1="0" y1="0" x2="1" y2="0" id="linearGradient9370" gradientUnits="userSpaceOnUse" gradientTransform="matrix(0 -19.2343 -19.2322 0 60.323 741.257)" spreadMethod="pad"><stop id="stop9372" offset="0" stop-color="#00c0f3" stop-opacity="1"/><stop id="stop9374" offset="1" stop-color="#0066b3" stop-opacity="1"/></linearGradient><linearGradient x1="0" y1="0" x2="1" y2="0" id="linearGradient9352" gradientUnits="userSpaceOnUse" gradientTransform="matrix(0 -19.2343 -6.4071 0 176.06 741.257)" spreadMethod="pad"><stop id="stop9354" offset="0" stop-color="#00c0f3" stop-opacity="1"/><stop id="stop9356" offset="1" stop-color="#0066b3" stop-opacity="1"/></linearGradient><linearGradient x1="0" y1="0" x2="1" y2="0" id="linearGradient9334" gradientUnits="userSpaceOnUse" gradientTransform="matrix(0 -19.2343 -14.3486 0 169.017 741.257)" spreadMethod="pad"><stop id="stop9336" offset="0" stop-color="#00c0f3" stop-opacity="1"/><stop id="stop9338" offset="1" stop-color="#0066b3" stop-opacity="1"/></linearGradient><linearGradient x1="0" y1="0" x2="1" y2="0" id="linearGradient9316" gradientUnits="userSpaceOnUse" gradientTransform="matrix(0 -19.8327 -14.8209 0 154.43 741.555)" spreadMethod="pad"><stop id="stop9318" offset="0" stop-color="#00c0f3" stop-opacity="1"/><stop id="stop9320" offset="1" stop-color="#0066b3" stop-opacity="1"/></linearGradient><linearGradient x1="0" y1="0" x2="1" y2="0" id="linearGradient9298" gradientUnits="userSpaceOnUse" gradientTransform="matrix(0 -19.2343 -20.8362 0 141.268 741.257)" spreadMethod="pad"><stop id="stop9300" offset="0" stop-color="#00c0f3" stop-opacity="1"/><stop id="stop9302" offset="1" stop-color="#0066b3" stop-opacity="1"/></linearGradient><linearGradient x1="0" y1="0" x2="1" y2="0" id="linearGradient9280" gradientUnits="userSpaceOnUse" gradientTransform="matrix(0 -19.2343 -17.8263 0 123.677 741.257)" spreadMethod="pad"><stop id="stop9282" offset="0" stop-color="#00c0f3" stop-opacity="1"/><stop id="stop9284" offset="1" stop-color="#0066b3" stop-opacity="1"/></linearGradient><clipPath id="clipPath4031"><path d="M.03 841.95h595.26V.03H.03v841.92z" id="path4033"/></clipPath><clipPath id="clipPath4023"><path d="M0 841h595.276V-.89H0V841z" id="path4025"/></clipPath><clipPath id="clipPath2877"><path d="M.06 793.02h615V.06H.06v792.96z" id="path2879"/></clipPath><clipPath id="clipPath2871"><path d="M0 793h615V0H0v793z" id="path2873"/></clipPath><clipPath id="clipPath2865"><path d="M399.6 438.67h167.33v-68.03H399.6v68.03z" id="path2867"/></clipPath><clipPath id="clipPath119"><path d="M0 842.04h594.96V0H0v842.04z" id="path121"/></clipPath><clipPath id="clipPath113"><path d="M0 842h595V0H0v842z" id="path115"/></clipPath><clipPath id="clipPath107"><path d="M1.4 840.44h593.88v-62.6H1.4v62.6z" id="path109"/></clipPath></defs><g transform="matrix(1.12895 0 0 -1.12895 -178.638 607.808)" id="g9816" fill="#d91433" fill-opacity="1" fill-rule="evenodd" stroke="none"><path d="M203.899 536.529h-3.875l-11.523-25.944-.348-.767h7.752l2.268 5.341h11.488l2.27-5.341h7.752l-11.908 26.711h-3.876zm0-17.076h-3.875l3.875 9.079 3.911-9.079h-3.911" id="path9802"/><path d="M170.415 531.186h18.436v5.343h-26.188v-26.711h7.752v11.766h15.748v5.063h-15.748v4.539" id="path9804"/><path d="M247.65 518.371l-14.944 18.158h-7.472v-26.711h7.472v17.109l13.862-17.109h8.554v26.711h-7.472v-18.158" id="path9806"/><path d="M313.643 513.274c-2.689-.035-4.784.838-6.25 2.584-1.466 1.781-2.2 4.189-2.166 7.297 0 3.003.7 5.413 2.026 7.193 1.361 1.851 3.492 2.689 6.39 2.689 2.793-.035 4.783-.734 5.9-2.165 1.118-1.432 1.886-3.108 2.304-5.028l9.114.035c-.594 3.666-2.269 6.494-4.992 8.415-2.759 1.955-6.775 2.967-12.047 3.038-5.97.034-10.335-1.258-13.129-3.877-2.794-2.618-4.156-6.075-4.12-10.3.035-5.307 1.711-8.973 5.063-10.998 3.316-2.06 7.402-3.108 12.186-3.178 5.272-.069 9.288.943 12.047 3.039 2.723 2.058 4.398 4.888 4.992 8.484h-9.114c-.837-4.783-3.56-7.193-8.204-7.228" id="path9808"/><path d="M283.371 519.489c0-1.745-.7-3.073-2.131-4.015-1.431-.942-3.212-1.431-5.376-1.431-1.922-.035-3.633.418-5.169 1.326-1.572.909-2.34 2.27-2.34 4.12v17.04h-7.751V518.86c0-1.92.522-3.526 1.572-4.784 1.012-1.256 2.304-2.269 3.874-3.037a19.194 19.194 0 0 1 4.96-1.605 32.06 32.06 0 0 1 4.854-.49c1.326 0 2.862.14 4.608.42 1.78.313 3.455.837 5.028 1.571 1.572.768 2.898 1.781 3.981 3.073 1.117 1.291 1.64 2.898 1.64 4.852v17.669h-7.75v-17.04" id="path9810"/></g></svg>