<?xml version="1.0" encoding="UTF-8" standalone="no"?>
<svg
   xmlns:dc="http://purl.org/dc/elements/1.1/"
   xmlns:cc="http://creativecommons.org/ns#"
   xmlns:rdf="http://www.w3.org/1999/02/22-rdf-syntax-ns#"
   xmlns:svg="http://www.w3.org/2000/svg"
   xmlns="http://www.w3.org/2000/svg"
   xmlns:sodipodi="http://sodipodi.sourceforge.net/DTD/sodipodi-0.dtd"
   xmlns:inkscape="http://www.inkscape.org/namespaces/inkscape"
   inkscape:version="1.0 (4035a4fb49, 2020-05-01)"
   height="176.60001"
   width="599.97498"
   sodipodi:docname="hass.svg"
   xml:space="preserve"
   viewBox="0 0 599.97498 176.60001"
   y="0"
   x="0"
   id="layer"
   version="1.1"><metadata
     id="metadata384"><rdf:RDF><cc:Work
         rdf:about=""><dc:format>image/svg+xml</dc:format><dc:type
           rdf:resource="http://purl.org/dc/dcmitype/StillImage" /><dc:title></dc:title></cc:Work></rdf:RDF></metadata><defs
     id="defs382" /><sodipodi:namedview
     inkscape:current-layer="layer"
     inkscape:window-maximized="0"
     inkscape:window-y="0"
     inkscape:window-x="0"
     inkscape:cy="92.2"
     inkscape:cx="305.475"
     inkscape:zoom="1.3113497"
     fit-margin-bottom="0"
     fit-margin-right="0"
     fit-margin-left="0"
     fit-margin-top="0"
     showgrid="false"
     id="namedview380"
     inkscape:window-height="480"
     inkscape:window-width="763"
     inkscape:pageshadow="2"
     inkscape:pageopacity="0"
     guidetolerance="10"
     gridtolerance="10"
     objecttolerance="10"
     borderopacity="1"
     bordercolor="#666666"
     pagecolor="#ffffff" /><style
     id="style365">.st0{fill:#231815}.st1{fill:#cf0a2c}.st2{fill:#fff}</style><path
     id="path367"
     d="m 264.075,138.6 c 4.3,0 6.4,3.2 6.4,7.1 0,3.9 -2.2,7.1 -6.4,7.1 -4.2,0 -6.3,-3.2 -6.3,-7.1 0,-3.9 2.2,-7.1 6.3,-7.1 m 5.1,7.1 c 0,-3.8 -1.9,-6 -5.1,-6 -3.5,0 -5,2.9 -5,6 0,3.2 1.5,6 5.1,6 3.5,0 5,-2.8 5,-6 m 9.4,6.8 V 139 h 8.8 v 1 h -7.5 v 4.9 h 6.8 v 1.1 h -6.8 v 6.5 z m 16.2,0 V 139 h 8.7 v 1 h -7.4 v 4.9 h 6.8 v 1.1 h -6.8 v 6.5 z m 16.8,-13.5 h 1.3 v 13.5 h -1.3 z m 20.1,3.9 c -0.5,-2.3 -2,-3.2 -4.3,-3.2 -3.3,0 -4.7,2.8 -4.7,6 0,3 1.1,6.1 4.8,6.1 2.3,0 3.8,-1.6 4.3,-3.7 h 1.3 c -0.6,2.6 -2.3,4.8 -5.9,4.8 -4.2,0 -5.9,-3.3 -5.9,-7.1 0,-5.2 2.7,-7.1 6.3,-7.1 2.8,0 4.8,1.5 5.3,4.3 h -1.2 z m 10.1,-3.9 h 1.3 v 13.5 h -1.3 z m 9.2,13.5 5.3,-13.5 h 1.5 l 5.2,13.5 h -1.3 l -1.6,-4.2 h -6.2 l -1.6,4.2 z m 3.4,-5.4 h 5.3 l -2.7,-7.1 z m 16.2,5.4 V 139 h 1.3 v 12.4 h 7.3 v 1.1 z m 27,0 V 139 h 2 l 4.5,11.9 4.4,-11.9 h 1.9 v 13.5 h -1.3 v -12.1 l -4.5,12.1 h -1.2 l -4.4,-12.1 h -0.1 v 12.1 z m 20.3,0 5.4,-13.5 h 1.5 l 5.2,13.5 h -1.3 l -1.6,-4.2 h -6.2 l -1.6,4.2 z m 3.3,-5.4 h 5.3 l -2.7,-7.1 z m 25.9,-4.2 c -0.5,-2.3 -2,-3.2 -4.3,-3.2 -3.3,0 -4.7,2.8 -4.7,6 0,3 1.1,6.1 4.8,6.1 2.3,0 3.8,-1.6 4.3,-3.7 h 1.3 c -0.6,2.6 -2.3,4.8 -5.9,4.8 -4.2,0 -5.9,-3.3 -5.9,-7.1 0,-5.2 2.7,-7.1 6.3,-7.1 2.8,0 4.8,1.5 5.3,4.3 h -1.2 z m 9.6,9.6 V 139 h 1.3 v 5.8 h 8 V 139 h 1.3 v 13.5 h -1.3 v -6.7 h -8 v 6.7 z m 19.8,-13.5 h 1.3 v 13.5 h -1.3 z m 11.8,1.7 h -0.1 v 11.8 h -1.3 V 139 h 1.5 l 7.9,11.8 V 139 h 1.3 v 13.5 h -1.5 z m 18,11.8 V 139 h 9.1 v 1 h -7.8 v 4.9 h 7 v 1.1 h -7 v 5.4 h 8 v 1.1 z m 26.9,-13.5 h 9.9 v 1 h -4.3 v 12.5 h -1.2 V 140 h -4.4 z m 23.2,-0.4 c 4.3,0 6.4,3.2 6.4,7.1 0,3.9 -2.2,7.1 -6.4,7.1 -4.2,0 -6.3,-3.2 -6.3,-7.1 0,-3.9 2.2,-7.1 6.3,-7.1 m 5.1,7.1 c 0,-3.8 -1.9,-6 -5.1,-6 -3.5,0 -5,2.9 -5,6 0,3.2 1.5,6 5.1,6 3.5,0 5,-2.8 5,-6 m 15.3,-7.1 c 4.3,0 6.4,3.2 6.4,7.1 0,3.9 -2.2,7.1 -6.4,7.1 -4.2,0 -6.3,-3.2 -6.3,-7.1 0,-3.9 2.2,-7.1 6.3,-7.1 m 5.1,7.1 c 0,-3.8 -1.9,-6 -5.1,-6 -3.5,0 -5,2.9 -5,6 0,3.2 1.5,6 5.1,6 3.5,0 5,-2.8 5,-6 m 9.5,6.8 V 139 h 1.3 v 12.4 h 7.3 v 1.1 z"
     class="st0" /><path
     id="path369"
     d="m 405.875,81.3 v -26 h 36.7 v 26 h 9.1 V 25.2 h -9.1 v 22.1 h -36.7 V 25.2 h -9.1 v 56.1 z m 85.5,-4.6 c 0.9,4.4 4,5.1 7.2,5.1 2,0 4.4,-0.2 6.1,-0.5 l 0.4,-0.1 v -6.3 l -0.5,0.1 c -0.7,0.1 -1.8,0.3 -2.6,0.3 -2.2,0 -3.1,-0.9 -3.1,-3.1 V 50.4 c 0,-10.4 -12,-12 -19.1,-12 -13,0 -19.6,4.6 -20.6,14.5 v 0.5 h 8.2 V 53 c 0.2,-5.1 4.1,-7.6 12.1,-7.6 7.9,0 11.3,1.9 11.3,6.2 0,3.2 -2.1,4 -6.7,4.4 l -8.8,0.9 c -12.8,1.4 -17.8,5 -17.8,13 0,3.8 1.7,12.7 16.9,12.7 5.7,0.1 13.2,-1.8 17,-5.9 m -5.2,-4 c -2.9,2 -6.9,3.1 -11.1,3.1 -5.4,0 -9,-2.4 -9,-6 0,-3.7 2.5,-5.4 8.8,-6.2 l 8.7,-1.1 c 3.5,-0.4 5.7,-0.9 7.1,-1.9 v 4.2 c 0,3.1 -1.6,5.9 -4.5,7.9 m 69.1,2.4 c -0.7,0.1 -1.8,0.3 -2.6,0.3 -2.2,0 -3,-0.9 -3.1,-3.1 V 50.5 c 0,-10.4 -12,-12 -19.1,-12 -13,0 -19.6,4.6 -20.6,14.5 v 0.5 h 8.2 v -0.4 c 0.2,-5.1 4.1,-7.6 12.1,-7.6 7.9,0 11.3,1.9 11.3,6.2 0,3.2 -2.1,4 -6.7,4.4 l -8.8,0.9 c -12.8,1.4 -17.8,5 -17.8,13 0,3.8 1.7,12.7 16.9,12.7 5.7,0 13.3,-1.9 17,-6 0.9,4.4 4,5.1 7.2,5.1 2,0 4.4,-0.2 6.1,-0.5 l 0.4,-0.1 v -6.3 z m -13.8,-10.2 c 0,3 -1.6,5.8 -4.6,7.9 -2.9,2 -6.9,3.1 -11.1,3.1 -5.4,0 -9,-2.4 -9,-6 0,-3.7 2.5,-5.4 8.8,-6.2 l 8.7,-1.1 c 3.5,-0.4 5.7,-0.9 7.1,-1.9 z m 16.4,2.8 v 0.5 c 0.7,9.7 7.8,14.6 21.2,14.6 6.4,0 11.5,-1.2 15.1,-3.5 3.8,-2.5 5.7,-6.1 5.7,-10.8 0,-6.3 -4.6,-9.8 -14.5,-11.2 l -11,-1.5 c -5.3,-0.8 -6.4,-2.2 -6.4,-4.6 0,-2 1.1,-3.5 3.2,-4.5 1.8,-0.8 4.2,-1.3 7,-1.3 8.3,0 11.5,3.7 11.7,7.2 V 53 h 8.6 v -0.5 c -0.8,-9 -8,-14 -20.2,-14 -5.7,0 -10.5,1.2 -13.8,3.5 -3.4,2.4 -5.2,5.8 -5.2,10 0,6.7 5.7,10.4 11.4,11.2 l 12.8,1.7 c 6.1,0.8 7.3,2.5 7.3,5 0,1.1 -0.4,2.6 -2.3,3.9 -2,1.3 -5.3,2 -9.7,2 -9.1,0 -12.3,-4 -12.3,-7.7 v -0.4 z"
     class="st1" /><path
     id="path371"
     d="m 424.175,91.5 h -27.4 v 35 h 5.9 v -15.3 h 20.5 V 106 h -20.5 v -9.3 h 21.5 z m 14,0 v 0.4 c -0.3,3.9 -3.5,5.9 -9.5,5.9 h -1.6 v 4.6 h 10 v 24.2 h 5.9 V 91.5 Z m 56.1,5.2 v -5.2 h -31.8 v 5.2 h 12.9 v 29.8 h 6 V 96.7 Z m 10.4,3 c -4.7,0 -8.6,1.4 -11.3,4.1 -2.4,2.4 -3.7,5.9 -3.7,9.7 0,8.4 5.9,13.8 15,13.8 4.8,0 10.8,-2.3 13.3,-8.8 l 0.2,-0.6 h -6 l -0.1,0.3 c -1.7,3.8 -6,4.2 -7.7,4.2 -3.9,0 -8.2,-2.5 -8.8,-7.1 h 23.1 v -1.1 c 0,-10.7 -7.3,-14.5 -14,-14.5 m -0.3,4.9 c 4.3,0 7.4,2.4 8.3,6.2 h -16.8 c 0.8,-3.7 4.2,-6.2 8.5,-6.2 m 46.4,17.7 c -0.4,0.1 -1.1,0.2 -1.6,0.2 -1.2,0 -1.7,-0.5 -1.7,-1.7 v -13.5 c 0,-6.6 -7.5,-7.6 -12,-7.6 -8.2,0 -12.3,2.9 -12.9,9.1 v 0.5 h 5.4 v -0.4 c 0.1,-3.1 2.5,-4.6 7.3,-4.6 4.8,0 6.8,1.1 6.8,3.7 0,1.9 -1.2,2.3 -4,2.6 l -5.5,0.6 c -7.9,0.9 -11.2,3.2 -11.2,8.2 0,2.4 1,8 10.6,8 3.5,0 8,-1.1 10.4,-3.5 0.7,2.6 2.7,3 4.6,3 1.3,0 2.7,-0.1 3.8,-0.3 l 0.4,-0.1 v -4.3 z m -8.7,-6.1 c 0,1.8 -1,3.5 -2.8,4.7 -1.8,1.2 -4.2,1.9 -6.8,1.9 -3.2,0 -5.4,-1.4 -5.4,-3.5 0,-2.2 1.4,-3.2 5.3,-3.7 l 5.4,-0.7 c 2,-0.2 3.3,-0.5 4.2,-1 v 2.3 z m 56.5,-7.2 c 0,-7.3 -6.3,-9.3 -10,-9.3 -4.3,0 -7.6,1.4 -10.1,4.4 -1.9,-2.8 -5,-4.4 -8.6,-4.4 -2.4,0 -6.7,0.5 -9.5,3.9 v -3 h -5.7 v 26 h 5.7 v -14.9 c 0,-2.2 0.8,-4 2.3,-5.3 1.4,-1.2 3.3,-1.8 5.5,-1.8 2.6,0 5.6,1 5.6,5.6 v 16.4 h 5.7 V 111 c 0,-2.1 0.8,-3.7 2.3,-4.8 1.4,-1 3.3,-1.5 5.5,-1.5 2.6,0 5.6,1 5.6,5.6 v 16.4 h 5.6 V 109 Z m -153.1,-16.7 h 1.4 v 3.1 h 0.5 v -3.1 h 1.4 v -0.5 h -3.3 z m 5.9,2.5 -1.4,-3 h -0.8 v 3.6 h 0.5 v -2.9 h 0.1 l 1.4,2.9 h 0.4 l 1.5,-3 v 3 h 0.5 v -3.6 h -0.7 z"
     class="st0" /><path
     id="path373"
     d="m 320.775,23.8 c -29.3,0 -53,23.7 -53,53 0,1 0,2 0.1,3 h -7 l -7.2,12.3 h 16.4 c 6.6,21.8 26.8,37.7 50.7,37.7 29.3,0 53,-23.7 53,-53 0,-29.3 -23.7,-53 -53,-53 m -37.7,68.3 h 13.6 l -6.6,11.3 c -2.9,-3.4 -5.3,-7.2 -7,-11.3 m 37.7,25.4 c -11,0 -21,-4.4 -28.4,-11.6 h 10 l 34.2,-58.7 h -13.9 l -19,32.5 h -23.6 c -0.1,-1 -0.1,-2 -0.1,-3 0,-22.4 18.2,-40.7 40.7,-40.7 11.5,0 21.9,4.8 29.3,12.5 l -18.2,31.2 h -10 l -7.2,12.3 h 10.1 l -8.1,13.9 h 13.9 l 27.1,-46.4 c 2.5,5.2 3.9,11.1 3.9,17.3 0,22.4 -18.2,40.7 -40.7,40.7 m -156.7,-94.9 c -0.1,-0.2 -0.4,-0.4 -0.7,-0.4 h -19.7 c -0.3,0 -0.5,0.1 -0.7,0.4 l -5.2,8.9 h -17.9 l 4.8,-8.1 c 0.1,-0.2 0.1,-0.5 0,-0.8 -0.1,-0.2 -0.4,-0.4 -0.7,-0.4 h -19.7 c -0.3,0 -0.5,0.1 -0.7,0.4 l -5.2,8.9 h -74.9 c -2.5,0 -4.5,2 -4.5,4.5 v 32.3 h -8 c -0.3,0 -0.5,0.1 -0.7,0.4 l -10.2,17.4 c -0.1,0.2 -0.1,0.5 0,0.8 0.1,0.2 0.4,0.4 0.7,0.4 h 18.2 v 47 h 24.7 l 10,-17.1 h 7.3 l -18,30.8 h -7.3 l 4.2,-7.3 h -21 v 9.2 c 0,2.5 2,4.5 4.5,4.5 h 123 c 2.5,0 4.5,-2 4.5,-4.5 v -26.3 h -24.8 c -0.5,0 -1,0.3 -1.2,0.7 l -2.7,4.6 h 9.3 c 2.1,0 3.4,2.3 2.4,4.1 l -7.7,13.1 c -0.6,1.1 -1.8,1.8 -3.1,1.8 h -20.1 v -7.3 h -6.5 l 3.8,-6.4 h 2.8 v -4.8 l 6.2,-10.6 v 22.7 h 11.1 c 0.6,0 1.2,-0.3 1.5,-0.8 l 3.3,-5.4 h -9.6 c -2.1,0 -3.4,-2.3 -2.4,-4.1 l 7.3,-12.4 c 0.6,-1.1 1.8,-1.8 3.1,-1.8 h 27.7 V 45.9 l 13.2,-22.5 c -0.2,-0.2 -0.2,-0.5 -0.4,-0.8 m -108.2,83.5 11.5,-19.6 h -66.6 l 10.2,-17.4 h 66.5 l 26.9,-46.1 h 19.7 l -5,8.5 -43.5,74.5 h -19.7 z m -5.4,41.9 4.2,-7.3 h -5.3 l 3.8,-6.4 h 5.3 l 10,-17.1 h 7.3 l -18,30.8 z m 11,0 18,-30.8 h 7.2 l -18,30.8 z m 28.6,0 h -8.4 v -7.3 h -6.7 l 3.8,-6.4 h 2.9 v -5 l 6.1,-10.4 v 19.9 l 12.7,-21.6 h 7.6 z m 24.9,-41.9 h -19.7 l 11.5,-19.6 h -14.3 l 10.2,-17.4 h 14.2 l 26.9,-46.1 h 19.7 z"
     class="st1" /><path
     id="path375"
     d="m 126.075,123.6 h 24.8 V 117 h -27.7 c -1.3,0 -2.5,0.7 -3.1,1.8 l -7.3,12.4 c -1.1,1.8 0.3,4.1 2.4,4.1 h 9.6 l -3.2,5.4 c -0.3,0.5 -0.9,0.8 -1.5,0.8 h -11.1 v -22.7 l -6.2,10.6 v 4.8 h -2.8 l -3.8,6.4 h 6.5 v 7.3 h 20.1 c 1.3,0 2.5,-0.7 3.1,-1.8 l 7.7,-13.1 c 1.1,-1.8 -0.3,-4.1 -2.4,-4.1 h -9.3 l 2.7,-4.6 c 0.6,-0.4 1,-0.7 1.5,-0.7 m -57.6,-6.4 -10,17.1 h -5.3 l -3.8,6.4 h 5.3 l -4.2,7.3 h 7.3 l 18,-30.8 z m -14.8,0 -10,17.1 h -24.7 v 6.4 h 21 l -4.3,7.3 h 7.3 l 18,-30.8 z m 25.8,0 -18,30.8 h 7.2 l 17.9,-30.8 z m 21,0 -12.8,21.5 v -19.8 l -6.1,10.4 v 5 h -2.9 l -3.7,6.4 h 6.6 v 7.3 h 8.5 l 17.9,-30.8 z m 43.3,-94.2 -26.9,46.1 h -14.2 l -10.2,17.4 h 14.2 l -11.4,19.6 h 19.7 l 48.5,-83.1 z m -39.4,0 -26.9,46.1 h -66.5 l -10.2,17.4 h 66.6 l -11.5,19.6 h 19.7 l 48.5,-83.1 z"
     class="st2" /><path
     id="path377"
     d="m 163.975,176.6 h -0.6 L 265.275,0 h 6.1 z"
     class="st1" /></svg>
