<?xml version="1.0" encoding="UTF-8" standalone="no"?>
<svg
   xmlns:dc="http://purl.org/dc/elements/1.1/"
   xmlns:cc="http://creativecommons.org/ns#"
   xmlns:rdf="http://www.w3.org/1999/02/22-rdf-syntax-ns#"
   xmlns:svg="http://www.w3.org/2000/svg"
   xmlns="http://www.w3.org/2000/svg"
   xmlns:sodipodi="http://sodipodi.sourceforge.net/DTD/sodipodi-0.dtd"
   xmlns:inkscape="http://www.inkscape.org/namespaces/inkscape"
   inkscape:version="1.0 (4035a4fb49, 2020-05-01)"
   height="104.9"
   width="600"
   sodipodi:docname="heidenhain.svg"
   xml:space="preserve"
   viewBox="0 0 600 104.9"
   y="0"
   x="0"
   id="layer"
   version="1.1"><metadata
     id="metadata106"><rdf:RDF><cc:Work
         rdf:about=""><dc:format>image/svg+xml</dc:format><dc:type
           rdf:resource="http://purl.org/dc/dcmitype/StillImage" /><dc:title></dc:title></cc:Work></rdf:RDF></metadata><defs
     id="defs104" /><sodipodi:namedview
     inkscape:current-layer="layer"
     inkscape:window-maximized="0"
     inkscape:window-y="156"
     inkscape:window-x="2917"
     inkscape:cy="56.5"
     inkscape:cx="305.6"
     inkscape:zoom="1.2730061"
     fit-margin-bottom="0"
     fit-margin-right="0"
     fit-margin-left="0"
     fit-margin-top="0"
     showgrid="false"
     id="namedview102"
     inkscape:window-height="480"
     inkscape:window-width="771"
     inkscape:pageshadow="2"
     inkscape:pageopacity="0"
     guidetolerance="10"
     gridtolerance="10"
     objecttolerance="10"
     borderopacity="1"
     bordercolor="#666666"
     pagecolor="#ffffff" /><style
     id="style85">.st0,.st1{fill:#231815}.st1{fill-rule:evenodd;clip-rule:evenodd}</style><path
     id="path87"
     d="m 187.1,28.4 v 21 h -19.8 v -21 h -14.5 v 52.5 h 14.5 V 59.8 h 19.8 v 21.1 h 14.5 V 28.4 Z M 244.7,71 v 9.9 H 208.2 V 28.4 h 36.5 v 9.9 h -22 v 11.3 h 20.4 v 9.7 H 222.7 V 71 Z m 4,-42.6 h 14.5 v 52.4 h -14.5 z"
     class="st0" /><path
     id="path89"
     d="m 284.3,38.6 h 6.8 c 7.9,0 15.4,5.2 15.4,16.1 0,10.8 -7.5,16.1 -15.4,16.1 h -6.8 z M 269.8,28.4 V 80.9 H 292 c 18,0 29.9,-6.8 29.9,-26.2 0,-19.4 -11.8,-26.2 -29.9,-26.2 h -22.2 z"
     class="st1" /><path
     id="path91"
     d="m 360.3,71 v 9.9 H 323.8 V 28.4 h 36.5 v 9.9 h -22 v 11.3 h 20.4 v 9.7 H 338.3 V 71 Z m 5.1,9.9 h 12.2 l -0.9,-40.8 16.7,40.8 h 20.4 V 28.4 h -12.3 l 1.2,40.8 -18.3,-40.8 h -19 z M 434.9,59.8 V 80.9 H 420.4 V 28.4 h 14.5 v 21 h 19.8 v -21 h 14.6 V 80.9 H 454.7 V 59.8 Z"
     class="st0" /><path
     id="path93"
     d="m 492.6,60.4 7.8,-21.5 7.8,21.5 z m -7.5,20.5 4,-10.9 h 22.6 l 4.1,10.9 h 14.5 L 509.2,28.5 h -17.6 l -21,52.4 z"
     class="st1" /><path
     id="path95"
     d="m 531,28.4 h 14.5 V 80.8 H 531 Z m 20.5,52.5 h 12.3 l -0.9,-40.8 16.7,40.8 H 600 V 28.4 h -12.3 l 1.1,40.8 -18.2,-40.8 h -19.1 z"
     class="st0" /><g
     transform="translate(-20.4,-269.5)"
     id="g99"><path
       id="path97"
       d="m 24.3,322 c 0,-26.8 21.7,-48.5 48.5,-48.5 26.8,0 48.5,21.7 48.5,48.5 0,26.8 -21.7,48.5 -48.5,48.5 C 46,370.5 24.3,348.8 24.3,322 m 87.9,23.7 H 33.5 c 8.1,13.3 22.7,22.2 39.3,22.2 16.6,0 31.3,-8.9 39.4,-22.2 m -80.1,-2.6 h 81.5 c 3.3,-6.3 5.2,-13.5 5.2,-21.2 C 118.8,296.5 98.2,276 72.9,276 47.5,276 27,296.6 27,321.9 c -0.1,7.7 1.8,14.9 5.1,21.2 M 65.5,331.8 59,342.9 52.6,331.8 Z m -6.5,7.4 -3.2,-5.6 h 6.4 z m 22.1,-34.5 -6.4,11.1 -6.4,-11.1 z m -6.4,7.5 -3.2,-5.6 h 6.4 z M 90.3,288.7 H 77.5 l 6.4,-11.1 3.2,5.6 -1,1.8 -2.1,-3.7 -3.2,5.5 8.5,0.1 z m -10.2,10.4 -4.3,-7.4 1.1,-1.9 6.4,11.1 H 70.5 l 1,-1.8 z M 64.5,318.7 H 73 l 1.1,-1.9 H 61.2 l 6.4,11.1 1,-1.8 z m -8.1,6.5 0.9,-1.6 9.6,5.6 -0.9,1.6 z M 22.9,272 h 99.8 v 99.8 H 22.9 Z m -2.5,-2.5 H 125.3 V 374.4 H 20.4 Z"
       class="st1" /></g></svg>
