<svg xmlns="http://www.w3.org/2000/svg" version="1.0" width="708.661" height="121.381" id="svg6053"><defs id="defs6055"><clipPath id="clp9"><path d="M0 842h594.96V.015H0V842z" id="path5367"/></clipPath><clipPath id="clp8"><path d="M.362 842.44H595.64V.555H.362V842.44z" id="path5362"/></clipPath><clipPath id="clp7"><path d="M52.685 802.76H222.76v-39.68H52.685v39.68z" id="path5357"/></clipPath><clipPath id="clp6"><path d="M0 842h594.96V.015H0V842z" id="path5351"/></clipPath><clipPath id="clp5"><path d="M.362 842.44H595.64V.555H.362V842.44z" id="path5346"/></clipPath><clipPath id="clp4"><path d="M52.685 802.76H222.76v-39.68H52.685v39.68z" id="path5341"/></clipPath></defs><g transform="translate(-543.118 2.133)" id="layer1"><g transform="matrix(7.78547 0 0 -7.78547 -5.953 6190.141)" id="q4"><clipPath id="clipPath6074"><path d="M52.685 802.76H222.76v-39.68H52.685v39.68z" id="path6076"/></clipPath><g clip-path="url(#clp4)" id="g5343"><clipPath id="clipPath6079"><path d="M.362 842.44H595.64V.555H.362V842.44z" id="path6081"/></clipPath><g clip-path="url(#clp5)" id="g5348"><clipPath id="clipPath6084"><path d="M0 842h594.96V.015H0V842z" id="path6086"/></clipPath><g clip-path="url(#clp6)" id="g5353"><g id="q5" fill="none" stroke="none"><clipPath id="clipPath6090"><path d="M52.685 802.76H222.76v-39.68H52.685v39.68z" id="path6092"/></clipPath><g clip-path="url(#clp7)" id="g5359"><clipPath id="clipPath6095"><path d="M.362 842.44H595.64V.555H.362V842.44z" id="path6097"/></clipPath><g clip-path="url(#clp8)" id="g5364"><clipPath id="clipPath6100"><path d="M0 842h594.96V.015H0V842z" id="path6102"/></clipPath><g clip-path="url(#clp9)" id="g5369"><g id="q6" fill="none" stroke="none"><g transform="matrix(91.0272 0 0 15.5908 70.525 779.772)" id="xfrm7"><g id="q8"><g transform="translate(0 1)" id="xfrm9"><path d="M0 0h.054v-.36h.025L.152 0h.075L.125-.48l.102-.502H.152l-.075.377H.054v-.377H0V0" id="path5375" fill="#f25c19" fill-rule="nonzero" stroke="none"/></g></g><g id="q10"><g transform="translate(.514 1)" id="xfrm11"><path d="M0 0h.054v-.36h.025L.152 0h.075L.125-.48l.102-.502H.152l-.075.377H.054v-.377H0V0" id="path5379" fill="#f25c19" fill-rule="nonzero" stroke="none"/></g></g><g id="q12"><g transform="translate(.246 1)" id="xfrm13"><path d="M0 0h.054v-.575c0-.124.008-.173.03-.173h.053c.022 0 .03.049.03.173V0H.22v-.64C.22-.883.198-1 .15-1H.072C.022-1 0-.883 0-.64V0" id="path5383" fill="#f25c19" fill-rule="nonzero" stroke="none"/></g></g><g id="q14"><g transform="translate(.837 .403)" id="xfrm15"><path d="M0 0l.026.353H.05L.076 0H0zm.103-.385h.06l-.07.982h-.11l-.07-.982h.06l.012.174H.09l.012-.174" id="path5387" fill="#f25c19" fill-rule="nonzero" stroke="none"/></g></g></g></g></g></g></g></g></g></g></g></g></g></svg>