<?xml version="1.0" encoding="UTF-8" standalone="no"?>
<svg
   xmlns:dc="http://purl.org/dc/elements/1.1/"
   xmlns:cc="http://creativecommons.org/ns#"
   xmlns:rdf="http://www.w3.org/1999/02/22-rdf-syntax-ns#"
   xmlns:svg="http://www.w3.org/2000/svg"
   xmlns="http://www.w3.org/2000/svg"
   xmlns:sodipodi="http://sodipodi.sourceforge.net/DTD/sodipodi-0.dtd"
   xmlns:inkscape="http://www.inkscape.org/namespaces/inkscape"
   inkscape:version="1.0 (4035a4fb49, 2020-05-01)"
   sodipodi:docname="mitsubishi.svg"
   width="297.99911"
   height="86.975456"
   viewBox="0 0 297.99911 86.975458"
   id="svg4014"
   version="1.1">
  <metadata
     id="metadata197">
    <rdf:RDF>
      <cc:Work
         rdf:about="">
        <dc:format>image/svg+xml</dc:format>
        <dc:type
           rdf:resource="http://purl.org/dc/dcmitype/StillImage" />
        <dc:title></dc:title>
      </cc:Work>
    </rdf:RDF>
  </metadata>
  <defs
     id="defs195" />
  <sodipodi:namedview
     inkscape:current-layer="svg4014"
     inkscape:window-maximized="0"
     inkscape:window-y="0"
     inkscape:window-x="0"
     inkscape:cy="43.4882"
     inkscape:cx="148.99911"
     inkscape:zoom="3.72"
     fit-margin-bottom="0"
     fit-margin-right="0"
     fit-margin-left="0"
     fit-margin-top="0"
     showgrid="false"
     id="namedview193"
     inkscape:window-height="480"
     inkscape:window-width="763"
     inkscape:pageshadow="2"
     inkscape:pageopacity="0"
     guidetolerance="10"
     gridtolerance="10"
     objecttolerance="10"
     borderopacity="1"
     bordercolor="#666666"
     pagecolor="#ffffff" />
  <g
     id="layer1"
     transform="translate(-531.41789,-634.0268)">
    <g
       id="g3706"
       transform="matrix(2.10492,0,0,-2.10492,564.663,720.406)">
      <path
         stroke="none"
         fill-rule="nonzero"
         fill-opacity="1"
         fill="#ed1b23"
         d="m 0,0 h -15.794 l 7.898,13.679 H 7.898 Z"
         id="path3708" />
    </g>
    <g
       id="g3710"
       transform="matrix(2.10492,0,0,-2.10492,597.91,720.406)">
      <path
         stroke="none"
         fill-rule="nonzero"
         fill-opacity="1"
         fill="#ed1b23"
         d="M 0,0 H 15.797 L 7.9,13.679 H -7.897 Z"
         id="path3712" />
    </g>
    <g
       id="g3714"
       transform="matrix(2.10492,0,0,-2.10492,597.91,662.82)">
      <path
         stroke="none"
         fill-rule="nonzero"
         fill-opacity="1"
         fill="#ed1b23"
         d="M 0,0 -7.897,13.679 -15.795,0 -7.897,-13.678 Z"
         id="path3716" />
    </g>
    <g
       fill-opacity="1"
       fill="#221e1f"
       id="g3718"
       transform="matrix(2.10492,0,0,-2.10492,646.087,708.148)">
      <path
         stroke="none"
         fill-rule="nonzero"
         fill-opacity="1"
         fill="#221e1f"
         d="M 0,0 H 6.326 V 2.294 H 0 V 5.116 H 7.117 V 7.411 H -2.681 V -5.823 h 9.985 v 2.294 H 0 Z"
         id="path3720" />
    </g>
    <g
       fill-opacity="1"
       fill="#221e1f"
       id="g3722"
       transform="matrix(2.10492,0,0,-2.10492,645.698,667.2)">
      <path
         stroke="none"
         fill-rule="nonzero"
         fill-opacity="1"
         fill="#221e1f"
         d="M 0,0 2.81,-9.836 H 5.385 L 8.196,0 v -9.836 h 2.497 V 3.396 H 6.869 L 4.099,-5.892 1.328,3.396 H -2.497 V -9.836 H 0 Z"
         id="path3724" />
    </g>
    <path
       stroke="none"
       fill-rule="nonzero"
       fill-opacity="1"
       fill="#221e1f"
       d="m 773.923,660.052 h -5.612 v 27.852 h 5.612 z"
       id="path3726" />
    <path
       stroke="none"
       fill-rule="nonzero"
       fill-opacity="1"
       fill="#221e1f"
       d="m 778.497,692.548 h -5.61 v 27.859 h 5.61 v -27.86 z"
       id="path3728" />
    <path
       stroke="none"
       fill-rule="nonzero"
       fill-opacity="1"
       fill="#221e1f"
       d="m 829.417,660.052 h -5.61 v 27.852 h 5.61 z"
       id="path3730" />
    <path
       stroke="none"
       fill-rule="nonzero"
       fill-opacity="1"
       fill="#221e1f"
       d="m 676.055,660.052 h -5.612 v 27.852 h 5.612 z"
       id="path3732" />
    <g
       fill-opacity="1"
       fill="#221e1f"
       id="g3734"
       transform="matrix(2.10492,0,0,-2.10492,815.966,670.917)">
      <path
         stroke="none"
         fill-rule="nonzero"
         fill-opacity="1"
         fill="#221e1f"
         d="M 0,0 H -5.298 V 5.161 H -7.921 V -8.07 h 2.623 v 5.776 H 0 V -8.07 H 2.623 V 5.161 H 0 Z"
         id="path3736" />
    </g>
    <g
       fill-opacity="1"
       fill="#221e1f"
       id="g3738"
       transform="matrix(2.10492,0,0,-2.10492,684.352,687.905)">
      <path
         stroke="none"
         fill-rule="nonzero"
         fill-opacity="1"
         fill="#221e1f"
         d="m 0,0 h 2.723 v 10.94 h 3.233 v 2.292 H -3.233 V 10.94 H 0 Z"
         id="path3740" />
    </g>
    <g
       fill-opacity="1"
       fill="#221e1f"
       id="g3742"
       transform="matrix(2.10492,0,0,-2.10492,735.533,720.406)">
      <path
         stroke="none"
         fill-rule="nonzero"
         fill-opacity="1"
         fill="#221e1f"
         d="m 0,0 h 2.719 v 10.939 h 3.234 v 2.296 H -3.235 V 10.939 H 0 Z"
         id="path3744" />
    </g>
    <g
       fill-opacity="1"
       fill="#221e1f"
       id="g3746"
       transform="matrix(2.10492,0,0,-2.10492,731.7,688.68)">
      <path
         stroke="none"
         fill-rule="nonzero"
         fill-opacity="1"
         fill="#221e1f"
         d="M 0,0 C 3.395,0 5.279,1.545 5.279,4.499 V 13.6 H 2.614 V 4.258 C 2.614,3.121 1.656,2.17 0,2.17 c -2.004,0 -2.594,1.122 -2.594,2.088 V 13.6 H -5.215 V 4.499 C -5.215,1.319 -3.241,0 0,0"
         id="path3748" />
    </g>
    <g
       fill-opacity="1"
       fill="#221e1f"
       id="g3750"
       transform="matrix(2.10492,0,0,-2.10492,689.294,708.148)">
      <path
         stroke="none"
         fill-rule="nonzero"
         fill-opacity="1"
         fill="#221e1f"
         d="M 0,0 H 6.329 V 2.294 H 0 V 5.116 H 7.119 V 7.411 H -2.68 V -5.823 h 9.985 v 2.294 H 0 Z"
         id="path3752" />
    </g>
    <g
       fill-opacity="1"
       fill="#221e1f"
       id="g3754"
       transform="matrix(2.10492,0,0,-2.10492,757.364,664.476)">
      <path
         stroke="none"
         fill-rule="nonzero"
         fill-opacity="1"
         fill="#221e1f"
         d="m 0,0 c 0.728,0 1.542,-0.677 1.542,-1.567 0,-0.793 -0.569,-1.666 -1.691,-1.666 H -3.323 V 0 Z m -0.197,-9.13 h -3.126 v 3.837 h 3.095 c 1.114,0 2.056,-0.64 2.056,-1.923 0,-1.086 -0.855,-1.914 -2.025,-1.914 m -3.023,-2 H 0.6 c 2.489,0 3.974,1.489 3.974,3.572 0,1.684 -1.222,3.129 -2.552,3.461 1.163,0.296 2.097,1.483 2.097,2.944 0,1.951 -1.442,3.254 -4.124,3.254 H -5.972 V -11.13 Z"
         id="path3756" />
    </g>
    <g
       fill-opacity="1"
       fill="#221e1f"
       id="g3758"
       transform="matrix(2.10492,0,0,-2.10492,755.083,704.92)">
      <path
         stroke="none"
         fill-rule="nonzero"
         fill-opacity="1"
         fill="#221e1f"
         d="M 0,0 V 3.601 H 3.227 C 4.316,3.601 5.042,2.837 5.042,1.792 5.042,1.057 4.397,0 3.306,0 Z m 5.312,-1.004 c 1.135,0.342 2.354,1.36 2.354,3.197 0,2.353 -1.594,3.703 -4.306,3.703 H -2.682 V -7.338 H 0 v 5.215 h 2.275 c 1.377,0 2.125,-0.714 2.351,-1.657 0.247,-1.04 0.184,-2.59 0.45,-3.558 H 7.77 c -0.262,1.013 -0.416,2.391 -0.474,3.479 -0.097,1.791 -1.039,2.505 -1.984,2.855"
         id="path3760" />
    </g>
    <g
       fill-opacity="1"
       fill="#221e1f"
       id="g3762"
       transform="matrix(2.10492,0,0,-2.10492,668.913,692.548)">
      <path
         stroke="none"
         fill-rule="nonzero"
         fill-opacity="1"
         fill="#221e1f"
         d="m 0,0 h -2.68 v -13.235 h 8.918 v 2.295 H 0 Z"
         id="path3764" />
    </g>
    <g
       fill-opacity="1"
       fill="#221e1f"
       id="g3766"
       transform="matrix(2.10492,0,0,-2.10492,706.307,676.134)">
      <path
         stroke="none"
         fill-rule="nonzero"
         fill-opacity="1"
         fill="#221e1f"
         d="m 0,0 c 2.148,-0.375 3.369,-0.771 3.369,-2.053 0,-0.868 -0.86,-1.691 -2.641,-1.691 -1.782,0 -2.695,1.013 -2.695,2.215 h -2.569 c 0,-2.301 1.491,-4.405 5.38,-4.405 3.702,0 5.307,1.959 5.307,4.196 0,2.085 -1.367,3.408 -3.812,3.888 -2.348,0.461 -3.96,0.561 -3.96,2.049 0,1.022 0.935,1.626 2.371,1.626 1.529,0 2.406,-0.751 2.406,-2.02 h 2.589 c 0,2.088 -1.582,4.237 -5.101,4.237 -2.427,0 -4.945,-1.398 -4.945,-4.013 C -4.301,1.831 -2.687,0.47 0,0"
         id="path3768" />
    </g>
    <g
       fill-opacity="1"
       fill="#221e1f"
       id="g3770"
       transform="matrix(2.10492,0,0,-2.10492,784.839,676.134)">
      <path
         stroke="none"
         fill-rule="nonzero"
         fill-opacity="1"
         fill="#221e1f"
         d="m 0,0 c 2.146,-0.375 3.366,-0.771 3.366,-2.053 0,-0.868 -0.857,-1.691 -2.639,-1.691 -1.781,0 -2.697,1.013 -2.697,2.215 h -2.567 c 0,-2.301 1.49,-4.405 5.378,-4.405 3.702,0 5.308,1.959 5.308,4.196 0,2.085 -1.366,3.408 -3.81,3.888 -2.35,0.461 -3.96,0.561 -3.96,2.049 0,1.022 0.933,1.626 2.371,1.626 1.525,0 2.404,-0.751 2.404,-2.02 h 2.59 c 0,2.088 -1.583,4.237 -5.101,4.237 -2.429,0 -4.947,-1.398 -4.947,-4.013 C -4.304,1.831 -2.687,0.47 0,0"
         id="path3772" />
    </g>
    <g
       fill-opacity="1"
       fill="#221e1f"
       id="g3774"
       transform="matrix(2.10492,0,0,-2.10492,717.368,716.102)">
      <path
         stroke="none"
         fill-rule="nonzero"
         fill-opacity="1"
         fill="#221e1f"
         d="m 0,0 c -2.156,0 -3.414,2.112 -3.414,4.627 0,2.516 1.214,4.631 3.414,4.631 1.636,0 2.476,-1.019 2.84,-2.263 h 2.776 c -0.455,2.59 -2.481,4.515 -5.692,4.515 -4.048,0 -6.095,-3.098 -6.095,-6.92 0,-3.822 2.131,-6.918 6.095,-6.918 3.173,0 5.315,1.844 5.708,4.671 H 2.84 C 2.476,1.013 1.607,0 0,0"
         id="path3776" />
    </g>
    <g
       fill-opacity="1"
       fill="#221e1f"
       id="g3778"
       transform="matrix(2.10492,0,0,-2.10492,792.852,716.102)">
      <path
         stroke="none"
         fill-rule="nonzero"
         fill-opacity="1"
         fill="#221e1f"
         d="m 0,0 c -2.155,0 -3.413,2.112 -3.413,4.627 0,2.516 1.212,4.631 3.413,4.631 1.638,0 2.478,-1.019 2.84,-2.263 h 2.776 c -0.456,2.59 -2.481,4.515 -5.693,4.515 -4.049,0 -6.095,-3.098 -6.095,-6.92 0,-3.822 2.131,-6.918 6.095,-6.918 3.174,0 5.315,1.844 5.709,4.671 H 2.84 C 2.478,1.013 1.605,0 0,0"
         id="path3780" />
    </g>
  </g>
</svg>
