<?xml version="1.0" encoding="UTF-8" standalone="no"?>
<svg
   xmlns:dc="http://purl.org/dc/elements/1.1/"
   xmlns:cc="http://creativecommons.org/ns#"
   xmlns:rdf="http://www.w3.org/1999/02/22-rdf-syntax-ns#"
   xmlns:svg="http://www.w3.org/2000/svg"
   xmlns="http://www.w3.org/2000/svg"
   xmlns:sodipodi="http://sodipodi.sourceforge.net/DTD/sodipodi-0.dtd"
   xmlns:inkscape="http://www.inkscape.org/namespaces/inkscape"
   inkscape:version="1.0 (4035a4fb49, 2020-05-01)"
   sodipodi:docname="mori.svg"
   xml:space="preserve"
   viewBox="-203 407.9 94.699997 20.200001"
   height="20.200001"
   width="94.699997"
   y="0px"
   x="0px"
   id="Ebene_1"
   version="1.0"><metadata
   id="metadata253"><rdf:RDF><cc:Work
       rdf:about=""><dc:format>image/svg+xml</dc:format><dc:type
         rdf:resource="http://purl.org/dc/dcmitype/StillImage" /><dc:title>MORI</dc:title></cc:Work></rdf:RDF></metadata><defs
   id="defs251" /><sodipodi:namedview
   inkscape:current-layer="Ebene_1"
   inkscape:window-maximized="0"
   inkscape:window-y="24"
   inkscape:window-x="1920"
   inkscape:cy="10.1"
   inkscape:cx="0.7"
   inkscape:zoom="6.1382979"
   fit-margin-bottom="0"
   fit-margin-right="0"
   fit-margin-left="0"
   fit-margin-top="0"
   showgrid="false"
   id="namedview249"
   inkscape:window-height="1054"
   inkscape:window-width="1918"
   inkscape:pageshadow="2"
   inkscape:pageopacity="0"
   guidetolerance="10"
   gridtolerance="10"
   objecttolerance="10"
   borderopacity="1"
   bordercolor="#666666"
   pagecolor="#ffffff" />
<style
   id="style242"
   type="text/css">
	.st0{fill:#FFFFFF;}
	.st1{fill:#FFFFFF;}
</style>
<title
   id="title244">MORI</title>
<path
   id="path246"
   d="m -183.8,409.1 -3.4,9.1 h -0.3 l -3.6,-9.1 c -0.3,-0.9 -0.7,-1.2 -1.9,-1.2 h -10 V 428 h 7.3 v -12.1 h 0.4 l 4.7,11 c 0.3,0.8 0.7,1.1 1.7,1.1 h 2.7 c 1,0 1.3,-0.3 1.7,-1.1 l 4.7,-11 h 0.4 V 428 h 7.6 v -20.1 h -9.9 c -1.4,0.1 -1.8,0.4 -2.1,1.2 z m 36.1,0 c -1,-0.8 -2.4,-1.2 -5.1,-1.2 h -8.7 c -2.7,0 -4.1,0.4 -5.1,1.1 -1.5,1.2 -2.8,3.4 -2.8,8.9 0,5.5 1.3,7.7 2.8,8.9 1,0.8 2.4,1.1 5.1,1.1 h 8.7 c 2.7,0 4.1,-0.4 5.1,-1.1 1.5,-1.1 2.8,-3.4 2.8,-8.9 0.1,-5.4 -1.2,-7.6 -2.8,-8.8 z m -6.1,14 c -0.2,0.2 -0.6,0.2 -1.7,0.2 h -3.3 c -1.1,0 -1.5,-0.1 -1.7,-0.2 -0.3,-0.2 -0.7,-0.7 -0.7,-5.1 0,-4.4 0.4,-4.9 0.7,-5.1 0.2,-0.2 0.6,-0.2 1.7,-0.2 h 3.3 c 1.1,0 1.5,0.1 1.7,0.2 0.3,0.2 0.7,0.7 0.7,5.1 0,4.4 -0.4,4.9 -0.7,5.1 z m 37.5,-15.1 v 20.1 h 8 V 408 Z m -2.6,5.7 c 0,-2.8 -0.6,-3.8 -1.7,-4.7 -1,-0.8 -2.5,-1 -5.1,-1 h -16.6 v 20.1 h 8 v -7 h 3.9 c 1.6,0 2,0.1 2.3,0.4 0.4,0.3 0.6,0.6 0.7,2.1 0.1,1.7 0,3 0,4.4 h 8.2 c 0,0 0,-3 -0.1,-5 -0.1,-2.9 -1.6,-3.6 -4.2,-4 v -0.1 c 3.2,-0.4 4.6,-1.5 4.6,-5.2 z m -9,2.9 c -0.2,0.2 -0.6,0.2 -2.1,0.2 h -4.3 v -4.3 h 4.3 c 1.5,0 1.8,0.1 2.1,0.2 0.4,0.3 0.6,0.7 0.6,1.9 0,1.2 -0.2,1.7 -0.6,2 z"
   class="st0" />
</svg>
