<svg xmlns="http://www.w3.org/2000/svg" version="1.0" width="814.961" height="193.465" id="svg7217"><g transform="translate(-3850.247 2468.192)" id="layer1"><g transform="translate(17.717 17.703)" id="g20018" fill="#166fc0" fill-rule="evenodd" stroke="none"><path d="M3929.001-2310.133c-43.306 0-78.754-35.448-78.754-79.384 0-43.228 35.448-78.675 78.754-78.675 43.858 0 79.305 35.447 79.305 78.675 0 43.936-35.447 79.383-79.305 79.383zm0-33.09c25.78 0 46.216-20.435 46.216-46.294 0-25.23-20.435-45.665-46.216-45.665-25.308 0-45.743 20.436-45.743 45.665 0 25.859 20.435 46.294 45.743 46.294" id="path19971"/><path d="M4414.654-2310.133c-43.307 0-78.754-35.448-78.754-79.384 0-43.228 35.447-78.675 78.754-78.675 43.857 0 79.305 35.447 79.305 78.675 0 43.936-35.448 79.383-79.305 79.383zm0-33.09c25.78 0 46.215-20.435 46.215-46.294 0-25.23-20.435-45.665-46.215-45.665-25.308 0-45.743 20.436-45.743 45.665 0 25.859 20.435 46.294 45.743 46.294" id="path19973"/><path d="M4017.345-2463.398v149.65h33.01v-121.984h36.706v121.983h33.01v-121.983h12.654c13.205 0 23.423 10.217 23.423 22.793v99.19h33.089v-98.01c0-29.396-23.422-52.897-52.896-52.897h-85.356c-11.397 0-22.872 0-33.64 1.258" id="path19975"/><path d="M4502.998-2463.398v149.65h33.01v-121.984h37.334c12.576 0 23.422 10.217 23.422 22.793v99.19h33.011v-98.01c0-29.396-23.422-52.897-52.896-52.897h-40.87c-10.768 0-22.244 0-33.011 1.258" id="path19977"/><path d="M4203.07-2463.398v149.65h33.011v-121.984h39.063c13.283 0 23.5 10.217 23.5 22.793 0 13.205-10.217 23.422-23.5 23.422h-28.217l51.089 75.768h40.87l-37.255-54.704c18-6.602 30.024-24.05 30.024-44.486 0-28.216-22.793-51.717-51.716-51.717h-43.858c-11.397 0-22.243 0-33.01 1.258" id="path19979"/></g></g></svg>