<svg xmlns="http://www.w3.org/2000/svg" xmlns:xlink="http://www.w3.org/1999/xlink" height="111.049" width="599.9" xml:space="preserve" viewBox="0 0 599.9 111.049" y="0" x="0" id="layer" version="1.1"><g transform="translate(-20.7 -267.25)" id="g783"><path id="path781" d="M281.4 324.4H278v-16.5h3.2c5.6 0 12.6.4 12.6 7.8 0 7.7-6.5 8.7-12.4 8.7m-36.3-23.8h-9.4c-6.8-8.4-16.6-14.2-27.9-16.8h37.3zm0 18.6h-.4c-1.4-6.3-4.1-11.9-7.6-16.8h8zm0 37.3h-6.5c3.1-4.8 5.4-10.3 6.5-16.5zm0 18.6h-31.7c9.8-3.2 18.1-8.9 23.9-16.8h7.8zm-33.2-16.8l-4.8 4.8-4.8-4.8-1.8-1.8-4.7-4.7 3.9-3.8c-1.8.5-3.7.8-5.7.8-7.2 0-12.8-3.5-15.6-9.1h31.2l-1.2 2.1 10 10-5.6 5.6zm-38.1 13.4l-13.2-13.2.2-.2 1.8-1.8 11.2-11.2 13.2 13.2zM159.6 349c0-.9.7-1.7 1.7-1.7s1.8.8 1.8 1.7c0 1-.8 1.7-1.8 1.7s-1.7-.8-1.7-1.7m3.5-6.5c0 1-.8 1.7-1.8 1.7s-1.7-.8-1.7-1.7c0-.9.7-1.7 1.7-1.7s1.8.8 1.8 1.7m-10.2-2.8l-1.8-1.8-6.7-6.6 10.3-10.2 1.6-1.6 1.6 1.6 10.2 10.2-6.6 6.6-1.8 1.8-3.4 3.4zm17.9-3.5c1 0 1.8.8 1.8 1.7 0 1-.8 1.7-1.8 1.7s-1.7-.8-1.7-1.7c0-.9.7-1.7 1.7-1.7m0-6.4c1 0 1.8.8 1.8 1.7 0 1-.8 1.7-1.8 1.7s-1.7-.8-1.7-1.7c0-1 .7-1.7 1.7-1.7m5.2-13.2c1 0 1.8.8 1.8 1.7 0 .3-.1.6-.3.9-.1.2-.3.3-.4.5-.1 0-.1.1-.2.1s-.1.1-.2.1-.1 0-.2.1H176.2h-.5H175.4h-.1c-.1 0-.1 0-.2-.1-.1 0-.1-.1-.2-.1s-.1-.1-.2-.1c-.2-.1-.3-.3-.4-.5-.2-.3-.3-.6-.3-.9.2-.9 1-1.7 2-1.7m0-6.5c1 0 1.8.8 1.8 1.7 0 1-.8 1.7-1.8 1.7s-1.7-.8-1.7-1.7c-.1-.9.7-1.7 1.7-1.7m26 10.9l1.8-1.8h-23.6c3-3.9 7.8-6.4 13.8-6.4 4.8 0 8.9 1.7 11.8 4.4l8.7-8.7 10.8 10.7 1.8 1.8.6.6-13.2 13.2-3-3c-.1 2.2-.5 4.2-1.2 6.1h-32.8c-.8-2.1-1.2-4.4-1.2-6.9 0-3.6.9-7 2.6-9.9H202zm151.7 8.6c0-10.2 8.3-18.3 18.6-18.3 7.7 0 14.6 4.4 20.1 9.5l-1-35.8c-7.2-2.5-15.2-3.9-22.9-3.9-18.8 0-34.8 10.2-43.1 25.5-4.1-16.6-18.5-24.6-37-24.6H20.8v1.8h159.4c-11.3 2.6-21 8.5-27.9 16.8H20.7v1.8h130.2c-3.6 4.9-6.2 10.5-7.6 16.8H20.7v1.8h122.1c-.6 3-.9 6.1-.9 9.4 0 2.6.2 5 .5 7.4H20.7v1.8h122.1c1.1 6.3 3.4 11.9 6.6 16.8H20.7v1.8h129.9c5.8 7.9 14.1 13.6 23.9 16.8H20.7v1.8h162.6l-5-5 13.2-13.2 13.2 13.2-5 5H278v-28.6h17.4c10.6 0 19-3.8 24.4-10.4 3.4 23.1 22.9 40.2 47.2 40.2 6.1 0 18.8-1.1 24.3-3.7l1-35.1c-5.5 5.4-11.7 8.7-19.6 8.7-10.2.1-19-7.9-19-18.3"/></g><g transform="translate(-20.7 -267.25)" id="g808"><defs id="defs786"><path transform="rotate(-45.025 39.146 282.877)" id="SVGID_1_" d="M34.8 278.5h8.8v8.8h-8.8z"/></defs><clipPath id="SVGID_2_"><use height="100%" width="100%" y="0" x="0" id="use788" xlink:href="#SVGID_1_" overflow="visible"/></clipPath><linearGradient gradientTransform="scale(3.7891 -3.7891) rotate(-45 -953.017 247.01)" y2="700.749" x2="-43.083" y1="700.749" x1="-45.915" gradientUnits="userSpaceOnUse" id="SVGID_3_"><stop id="stop791" offset="0" stop-color="#000"/><stop id="stop793" offset=".038" stop-color="#000509"/><stop id="stop795" offset=".283" stop-color="#002541"/><stop id="stop797" offset=".511" stop-color="#003d6e"/><stop id="stop799" offset=".713" stop-color="#004f8e"/><stop id="stop801" offset=".883" stop-color="#005aa1"/><stop id="stop803" offset="1" stop-color="#005ea8"/></linearGradient><path id="polygon806" clip-path="url(#SVGID_2_)" fill="url(#SVGID_3_)" d="M39.1 295.3l-12.4-12.4 12.4-12.5 12.5 12.5z"/></g><g transform="translate(-20.7 -267.25)" id="g833"><defs id="defs811"><path transform="rotate(-44.984 63.54 285.752)" id="SVGID_4_" d="M59.1 281.3h8.8v8.8h-8.8z"/></defs><clipPath id="SVGID_5_"><use height="100%" width="100%" y="0" x="0" id="use813" xlink:href="#SVGID_4_" overflow="visible"/></clipPath><linearGradient gradientTransform="scale(3.7885 -3.7885) rotate(-45 -952.216 244.11)" y2="703.344" x2="-39.802" y1="703.344" x1="-42.634" gradientUnits="userSpaceOnUse" id="SVGID_6_"><stop id="stop816" offset="0" stop-color="#000"/><stop id="stop818" offset=".038" stop-color="#000509"/><stop id="stop820" offset=".283" stop-color="#002541"/><stop id="stop822" offset=".511" stop-color="#003d6e"/><stop id="stop824" offset=".713" stop-color="#004f8e"/><stop id="stop826" offset=".883" stop-color="#005aa1"/><stop id="stop828" offset="1" stop-color="#005ea8"/></linearGradient><path id="polygon831" clip-path="url(#SVGID_5_)" fill="url(#SVGID_6_)" d="M63.5 298.1l-12.4-12.4 12.4-12.4 12.4 12.4z"/></g><g transform="translate(-20.7 -267.25)" id="g858"><defs id="defs836"><path transform="rotate(-44.984 54.932 302.683)" id="SVGID_7_" d="M50.5 298.3h8.8v8.8h-8.8z"/></defs><clipPath id="SVGID_8_"><use height="100%" width="100%" y="0" x="0" id="use838" xlink:href="#SVGID_7_" overflow="visible"/></clipPath><linearGradient gradientTransform="scale(3.7891 -3.7891) rotate(-45 -954.509 244.312)" y2="700.264" x2="-38.789" y1="700.264" x1="-41.62" gradientUnits="userSpaceOnUse" id="SVGID_9_"><stop id="stop841" offset="0" stop-color="#000"/><stop id="stop843" offset=".038" stop-color="#000509"/><stop id="stop845" offset=".283" stop-color="#002541"/><stop id="stop847" offset=".511" stop-color="#003d6e"/><stop id="stop849" offset=".713" stop-color="#004f8e"/><stop id="stop851" offset=".883" stop-color="#005aa1"/><stop id="stop853" offset="1" stop-color="#005ea8"/></linearGradient><path id="polygon856" clip-path="url(#SVGID_8_)" fill="url(#SVGID_9_)" d="M54.9 315.1l-12.4-12.4 12.4-12.5 12.4 12.5z"/></g><g transform="translate(-20.7 -267.25)" id="g883"><defs id="defs861"><path transform="rotate(-45.001 88.78 339.576)" id="SVGID_10_" d="M84.4 335.2h8.8v8.8h-8.8z"/></defs><clipPath id="SVGID_11_"><use height="100%" width="100%" y="0" x="0" id="use863" xlink:href="#SVGID_10_" overflow="visible"/></clipPath><linearGradient gradientTransform="scale(3.7897 -3.7897) rotate(-45 -957.069 238.804)" y2="699.899" x2="-30.238" y1="699.899" x1="-33.069" gradientUnits="userSpaceOnUse" id="SVGID_12_"><stop id="stop866" offset="0" stop-color="#000"/><stop id="stop868" offset=".038" stop-color="#000509"/><stop id="stop870" offset=".283" stop-color="#002541"/><stop id="stop872" offset=".511" stop-color="#003d6e"/><stop id="stop874" offset=".713" stop-color="#004f8e"/><stop id="stop876" offset=".883" stop-color="#005aa1"/><stop id="stop878" offset="1" stop-color="#005ea8"/></linearGradient><path id="polygon881" clip-path="url(#SVGID_11_)" fill="url(#SVGID_12_)" d="M88.8 352l-12.4-12.4 12.4-12.4 12.4 12.4z"/></g><g transform="translate(-20.7 -267.25)" id="g908"><defs id="defs886"><path transform="rotate(-45.001 53.77 319.303)" id="SVGID_13_" d="M49.4 314.9h8.8v8.8h-8.8z"/></defs><clipPath id="SVGID_14_"><use height="100%" width="100%" y="0" x="0" id="use888" xlink:href="#SVGID_13_" overflow="visible"/></clipPath><linearGradient gradientTransform="scale(3.7902 -3.7902) rotate(-45 -956.407 243.708)" y2="698.124" x2="-36.901" y1="698.124" x1="-39.732" gradientUnits="userSpaceOnUse" id="SVGID_15_"><stop id="stop891" offset="0" stop-color="#000"/><stop id="stop893" offset=".038" stop-color="#000509"/><stop id="stop895" offset=".283" stop-color="#002541"/><stop id="stop897" offset=".511" stop-color="#003d6e"/><stop id="stop899" offset=".713" stop-color="#004f8e"/><stop id="stop901" offset=".883" stop-color="#005aa1"/><stop id="stop903" offset="1" stop-color="#005ea8"/></linearGradient><path id="polygon906" clip-path="url(#SVGID_14_)" fill="url(#SVGID_15_)" d="M53.8 331.7l-12.4-12.4 12.4-12.4 12.4 12.4z"/></g><g transform="translate(-20.7 -267.25)" id="g933"><defs id="defs911"><path transform="rotate(-45.001 68.978 309.265)" id="SVGID_16_" d="M64.6 304.9h8.8v8.8h-8.8z"/></defs><clipPath id="SVGID_17_"><use height="100%" width="100%" y="0" x="0" id="use913" xlink:href="#SVGID_16_" overflow="visible"/></clipPath><linearGradient gradientTransform="scale(3.7891 -3.7891) rotate(-45 -954.596 242.422)" y2="701.164" x2="-36.295" y1="701.164" x1="-39.126" gradientUnits="userSpaceOnUse" id="SVGID_18_"><stop id="stop916" offset="0" stop-color="#000"/><stop id="stop918" offset=".038" stop-color="#000509"/><stop id="stop920" offset=".283" stop-color="#002541"/><stop id="stop922" offset=".511" stop-color="#003d6e"/><stop id="stop924" offset=".713" stop-color="#004f8e"/><stop id="stop926" offset=".883" stop-color="#005aa1"/><stop id="stop928" offset="1" stop-color="#005ea8"/></linearGradient><path id="polygon931" clip-path="url(#SVGID_17_)" fill="url(#SVGID_18_)" d="M69 321.7l-12.4-12.4L69 296.8l12.4 12.5z"/></g><g transform="translate(-20.7 -267.25)" id="g958"><defs id="defs936"><path transform="rotate(-45.025 86.203 292.918)" id="SVGID_19_" d="M81.8 288.5h8.8v8.8h-8.8z"/></defs><clipPath id="SVGID_20_"><use height="100%" width="100%" y="0" x="0" id="use938" xlink:href="#SVGID_19_" overflow="visible"/></clipPath><linearGradient gradientTransform="scale(3.7897 -3.7897) rotate(-45 -951.94 241.269)" y2="705.22" x2="-36.182" y1="705.22" x1="-39.014" gradientUnits="userSpaceOnUse" id="SVGID_21_"><stop id="stop941" offset="0" stop-color="#000"/><stop id="stop943" offset=".038" stop-color="#000509"/><stop id="stop945" offset=".283" stop-color="#002541"/><stop id="stop947" offset=".511" stop-color="#003d6e"/><stop id="stop949" offset=".713" stop-color="#004f8e"/><stop id="stop951" offset=".883" stop-color="#005aa1"/><stop id="stop953" offset="1" stop-color="#005ea8"/></linearGradient><path id="polygon956" clip-path="url(#SVGID_20_)" fill="url(#SVGID_21_)" d="M86.2 305.3l-12.4-12.4 12.4-12.4 12.4 12.4z"/></g><g transform="translate(-20.7 -267.25)" id="g983"><defs id="defs961"><path transform="rotate(-45.009 104.677 350.923)" id="SVGID_22_" d="M96.5 342.8h16.3v16.3H96.5z"/></defs><clipPath id="SVGID_23_"><use height="100%" width="100%" y="0" x="0" id="use963" xlink:href="#SVGID_22_" overflow="visible"/></clipPath><linearGradient gradientTransform="scale(7.0233 -7.0233) rotate(-45 -912.916 305.007)" y2="710.074" x2="-4.374" y1="710.074" x1="-7.206" gradientUnits="userSpaceOnUse" id="SVGID_24_"><stop id="stop966" offset="0" stop-color="#000"/><stop id="stop968" offset=".038" stop-color="#000509"/><stop id="stop970" offset=".283" stop-color="#002541"/><stop id="stop972" offset=".511" stop-color="#003d6e"/><stop id="stop974" offset=".713" stop-color="#004f8e"/><stop id="stop976" offset=".883" stop-color="#005aa1"/><stop id="stop978" offset="1" stop-color="#005ea8"/></linearGradient><path id="polygon981" clip-path="url(#SVGID_23_)" fill="url(#SVGID_24_)" d="M104.7 373.9l-23-23 23-23 23 23z"/></g><g transform="translate(-20.7 -267.25)" id="g1008"><defs id="defs986"><path transform="rotate(-44.984 73.671 327.909)" id="SVGID_25_" d="M67.7 322h11.9v11.9H67.7z"/></defs><clipPath id="SVGID_26_"><use height="100%" width="100%" y="0" x="0" id="use988" xlink:href="#SVGID_25_" overflow="visible"/></clipPath><linearGradient gradientTransform="scale(5.126 -5.126) rotate(-45 -931.438 278.673)" y2="705.185" x2="-19.02" y1="705.185" x1="-21.852" gradientUnits="userSpaceOnUse" id="SVGID_27_"><stop id="stop991" offset="0" stop-color="#000"/><stop id="stop993" offset=".038" stop-color="#000509"/><stop id="stop995" offset=".283" stop-color="#002541"/><stop id="stop997" offset=".511" stop-color="#003d6e"/><stop id="stop999" offset=".713" stop-color="#004f8e"/><stop id="stop1001" offset=".883" stop-color="#005aa1"/><stop id="stop1003" offset="1" stop-color="#005ea8"/></linearGradient><path id="polygon1006" clip-path="url(#SVGID_26_)" fill="url(#SVGID_27_)" d="M73.7 344.7l-16.8-16.8 16.8-16.8 16.8 16.8z"/></g><g transform="translate(-20.7 -267.25)" id="g1033"><defs id="defs1011"><path transform="rotate(-45.001 118.442 289.836)" id="SVGID_28_" d="M112.2 283.6h12.5v12.5h-12.5z"/></defs><clipPath id="SVGID_29_"><use height="100%" width="100%" y="0" x="0" id="use1013" xlink:href="#SVGID_28_" overflow="visible"/></clipPath><linearGradient gradientTransform="scale(5.4075 -5.4075) rotate(-45 -923.332 281.877)" y2="713.035" x2="-16.205" y1="713.035" x1="-19.037" gradientUnits="userSpaceOnUse" id="SVGID_30_"><stop id="stop1016" offset="0" stop-color="#000"/><stop id="stop1018" offset=".038" stop-color="#000509"/><stop id="stop1020" offset=".283" stop-color="#002541"/><stop id="stop1022" offset=".511" stop-color="#003d6e"/><stop id="stop1024" offset=".713" stop-color="#004f8e"/><stop id="stop1026" offset=".883" stop-color="#005aa1"/><stop id="stop1028" offset="1" stop-color="#005ea8"/></linearGradient><path id="polygon1031" clip-path="url(#SVGID_29_)" fill="url(#SVGID_30_)" d="M118.4 307.5l-17.7-17.7 17.7-17.7 17.8 17.7z"/></g><g transform="translate(-20.7 -267.25)" id="g1058"><defs id="defs1036"><path transform="rotate(-45.017 106.115 304.193)" id="SVGID_31_" d="M99.8 297.9h12.5v12.5H99.8z"/></defs><clipPath id="SVGID_32_"><use height="100%" width="100%" y="0" x="0" id="use1038" xlink:href="#SVGID_31_" overflow="visible"/></clipPath><linearGradient gradientTransform="scale(5.4084 -5.4084) rotate(-45 -924.849 282.394)" y2="710.78" x2="-16.029" y1="710.78" x1="-18.861" gradientUnits="userSpaceOnUse" id="SVGID_33_"><stop id="stop1041" offset="0" stop-color="#000"/><stop id="stop1043" offset=".038" stop-color="#000509"/><stop id="stop1045" offset=".283" stop-color="#002541"/><stop id="stop1047" offset=".511" stop-color="#003d6e"/><stop id="stop1049" offset=".713" stop-color="#004f8e"/><stop id="stop1051" offset=".883" stop-color="#005aa1"/><stop id="stop1053" offset="1" stop-color="#005ea8"/></linearGradient><path id="polygon1056" clip-path="url(#SVGID_32_)" fill="url(#SVGID_33_)" d="M106.1 321.9l-17.7-17.7 17.7-17.7 17.7 17.7z"/></g><g transform="translate(-20.7 -267.25)" id="g1083"><defs id="defs1061"><path id="SVGID_34_" d="M150.8 295.9L142 287l-8.9 8.9 8.9 8.8z"/></defs><clipPath id="SVGID_35_"><use height="100%" width="100%" y="0" x="0" id="use1063" xlink:href="#SVGID_34_" overflow="visible"/></clipPath><linearGradient gradientTransform="scale(5.6416 -5.6416) rotate(-45 -920.417 284.247)" y2="714.792" x2="-12.295" y1="714.792" x1="-15.127" gradientUnits="userSpaceOnUse" id="SVGID_36_"><stop id="stop1066" offset="0" stop-color="#000"/><stop id="stop1068" offset=".038" stop-color="#000509"/><stop id="stop1070" offset=".283" stop-color="#002541"/><stop id="stop1072" offset=".511" stop-color="#003d6e"/><stop id="stop1074" offset=".713" stop-color="#004f8e"/><stop id="stop1076" offset=".883" stop-color="#005aa1"/><stop id="stop1078" offset="1" stop-color="#005ea8"/></linearGradient><path id="polygon1081" clip-path="url(#SVGID_35_)" fill="url(#SVGID_36_)" d="M142 313.6l-17.7-17.7 17.7-17.8 17.7 17.8z"/></g><g transform="translate(-20.7 -267.25)" id="g1108"><defs id="defs1086"><path transform="rotate(-45.001 46.867 272.523)" id="SVGID_37_" d="M43.2 268.8h7.4v7.4h-7.4z"/></defs><clipPath id="SVGID_38_"><use height="100%" width="100%" y="0" x="0" id="use1088" xlink:href="#SVGID_37_" overflow="visible"/></clipPath><linearGradient gradientTransform="scale(3.1773 -3.1773) rotate(-45 -969.062 219.773)" y2="699.383" x2="-55.791" y1="699.383" x1="-58.623" gradientUnits="userSpaceOnUse" id="SVGID_39_"><stop id="stop1091" offset="0" stop-color="#000"/><stop id="stop1093" offset=".038" stop-color="#000509"/><stop id="stop1095" offset=".283" stop-color="#002541"/><stop id="stop1097" offset=".511" stop-color="#003d6e"/><stop id="stop1099" offset=".713" stop-color="#004f8e"/><stop id="stop1101" offset=".883" stop-color="#005aa1"/><stop id="stop1103" offset="1" stop-color="#005ea8"/></linearGradient><path id="polygon1106" clip-path="url(#SVGID_38_)" fill="url(#SVGID_39_)" d="M46.9 282.9l-10.4-10.4 10.4-10.4 10.4 10.4z"/></g><g transform="translate(-20.7 -267.25)" id="g1122"><path id="path1110" d="M44.4 314.3c1 0 1.8.8 1.8 1.7 0 1-.8 1.8-1.8 1.8s-1.7-.8-1.7-1.8c-.1-.9.7-1.7 1.7-1.7m0 6.6c1 0 1.8.8 1.8 1.8s-.8 1.7-1.8 1.7-1.7-.8-1.7-1.7c-.1-1 .7-1.8 1.7-1.8"/><path id="path1112" d="M63.4 324.7c1 0 1.8.8 1.8 1.7 0 1-.8 1.8-1.8 1.8s-1.7-.8-1.7-1.8c-.1-.9.7-1.7 1.7-1.7m0 6.5c1 0 1.8.8 1.8 1.8s-.8 1.7-1.8 1.7-1.7-.8-1.7-1.7c-.1-1 .7-1.8 1.7-1.8"/><path id="path1114" d="M95.8 299.2c1 0 1.8.8 1.8 1.7 0 1-.8 1.8-1.8 1.8s-1.7-.8-1.7-1.8c0-.8.7-1.7 1.7-1.7m0 6.6c1 0 1.8.8 1.8 1.8s-.8 1.7-1.8 1.7-1.7-.8-1.7-1.7c0-1 .7-1.8 1.7-1.8"/><path id="path1116" d="M132.8 290.6c1 0 1.8.8 1.8 1.7 0 1-.8 1.8-1.8 1.8s-1.7-.8-1.7-1.8c0-.9.7-1.7 1.7-1.7m0 6.5c1 0 1.8.8 1.8 1.8s-.8 1.7-1.8 1.7-1.7-.8-1.7-1.7c0-1 .7-1.8 1.7-1.8"/><path id="path1118" d="M111.7 303.8c1 0 1.8.8 1.8 1.7 0 1-.8 1.8-1.8 1.8s-1.7-.8-1.7-1.8c0-.9.7-1.7 1.7-1.7m0 6.5c1 0 1.8.8 1.8 1.8s-.8 1.7-1.8 1.7-1.7-.8-1.7-1.7c0-1 .7-1.8 1.7-1.8"/><path id="path1120" d="M77.4 315.8c1 0 1.8.8 1.8 1.7 0 1-.8 1.8-1.8 1.8s-1.7-.8-1.7-1.8c0-.9.7-1.7 1.7-1.7m0 6.5c1 0 1.8.8 1.8 1.8s-.8 1.7-1.8 1.7-1.7-.8-1.7-1.7c0-1 .7-1.8 1.7-1.8"/></g><g transform="translate(-20.7 -267.25)" id="g1147"><defs id="defs1125"><path d="M87.7 324.1c0-.9.7-1.8 1.7-1.8s1.8.8 1.8 1.8-.8 1.7-1.8 1.7-1.7-.8-1.7-1.7m0-6.6c0-.9.7-1.7 1.7-1.7s1.8.8 1.8 1.7c0 1-.8 1.8-1.8 1.8s-1.7-.8-1.7-1.8m-8.3 3.9l11.5 11.5 11.5-11.5-11.5-11.5z" id="SVGID_40_"/></defs><clipPath id="SVGID_41_"><use height="100%" width="100%" y="0" x="0" id="use1127" xlink:href="#SVGID_40_" overflow="visible"/></clipPath><linearGradient gradientTransform="scale(8.18 -8.18) rotate(-45 -904.347 317.792)" y2="712.633" x2="-3.107" y1="712.633" x1="-5.938" gradientUnits="userSpaceOnUse" id="SVGID_42_"><stop id="stop1130" offset="0" stop-color="#000"/><stop id="stop1132" offset=".038" stop-color="#000509"/><stop id="stop1134" offset=".283" stop-color="#002541"/><stop id="stop1136" offset=".511" stop-color="#003d6e"/><stop id="stop1138" offset=".713" stop-color="#004f8e"/><stop id="stop1140" offset=".883" stop-color="#005aa1"/><stop id="stop1142" offset="1" stop-color="#005ea8"/></linearGradient><path id="polygon1145" clip-path="url(#SVGID_41_)" fill="url(#SVGID_42_)" d="M90.9 344.4l-23-23 23-23 23 23z"/></g><g transform="translate(-20.7 -267.25)" id="g1172"><defs id="defs1150"><path d="M108.3 330.3c0-.9.7-1.8 1.7-1.8s1.8.8 1.8 1.8-.8 1.7-1.8 1.7c-.9 0-1.7-.8-1.7-1.7m0-6.6c0-.9.7-1.7 1.7-1.7s1.8.8 1.8 1.7c0 1-.8 1.8-1.8 1.8-.9 0-1.7-.8-1.7-1.8m-8.2 4.4l11.5 11.5 11.5-11.5-11.5-11.5z" id="SVGID_43_"/></defs><clipPath id="SVGID_44_"><use height="100%" width="100%" y="0" x="0" id="use1152" xlink:href="#SVGID_43_" overflow="visible"/></clipPath><linearGradient gradientTransform="scale(8.1807 -8.1807) rotate(-45 -904.254 316.575)" y2="713.409" x2="-1.571" y1="713.409" x1="-4.403" gradientUnits="userSpaceOnUse" id="SVGID_45_"><stop id="stop1155" offset="0" stop-color="#000"/><stop id="stop1157" offset=".038" stop-color="#000509"/><stop id="stop1159" offset=".283" stop-color="#002541"/><stop id="stop1161" offset=".511" stop-color="#003d6e"/><stop id="stop1163" offset=".713" stop-color="#004f8e"/><stop id="stop1165" offset=".883" stop-color="#005aa1"/><stop id="stop1167" offset="1" stop-color="#005ea8"/></linearGradient><path id="polygon1170" clip-path="url(#SVGID_44_)" fill="url(#SVGID_45_)" d="M111.6 351.2l-23-23 23-23.1 23 23.1z"/></g><g transform="translate(-20.7 -267.25)" id="g1197"><defs id="defs1175"><path d="M125.5 315.8c0-.9.7-1.8 1.7-1.8s1.8.8 1.8 1.8-.8 1.7-1.8 1.7-1.7-.7-1.7-1.7m0-6.5c0-.9.7-1.7 1.7-1.7s1.8.8 1.8 1.7c0 1-.8 1.8-1.8 1.8-1-.1-1.7-.9-1.7-1.8m-11.7.3l11.5 11.5 11.5-11.5-11.5-11.6z" id="SVGID_46_"/></defs><clipPath id="SVGID_47_"><use height="100%" width="100%" y="0" x="0" id="use1177" xlink:href="#SVGID_46_" overflow="visible"/></clipPath><linearGradient gradientTransform="scale(8.1794 -8.1794) rotate(-45 -903.003 316.252)" y2="715.218" x2="-1.844" y1="715.218" x1="-4.676" gradientUnits="userSpaceOnUse" id="SVGID_48_"><stop id="stop1180" offset="0" stop-color="#000"/><stop id="stop1182" offset=".038" stop-color="#000509"/><stop id="stop1184" offset=".283" stop-color="#002541"/><stop id="stop1186" offset=".511" stop-color="#003d6e"/><stop id="stop1188" offset=".713" stop-color="#004f8e"/><stop id="stop1190" offset=".883" stop-color="#005aa1"/><stop id="stop1192" offset="1" stop-color="#005ea8"/></linearGradient><path id="polygon1195" clip-path="url(#SVGID_47_)" fill="url(#SVGID_48_)" d="M125.3 332.6l-23-23 23-23.1 23.1 23.1z"/></g><g transform="translate(-20.7 -267.25)" id="g1209"><path id="path1199" d="M154.1 326.1c1 0 1.8.8 1.8 1.7 0 1-.8 1.8-1.8 1.8s-1.7-.8-1.7-1.8c-.1-.9.7-1.7 1.7-1.7m0 6.5c1 0 1.8.8 1.8 1.8s-.8 1.7-1.8 1.7-1.7-.8-1.7-1.7c-.1-.9.7-1.8 1.7-1.8"/><path id="path1201" d="M169.6 354.4c1 0 1.8.8 1.8 1.7 0 1-.8 1.8-1.8 1.8s-1.7-.8-1.7-1.8c-.1-.9.7-1.7 1.7-1.7m0 6.5c1 0 1.8.8 1.8 1.8s-.8 1.7-1.8 1.7-1.7-.8-1.7-1.7c-.1-.9.7-1.8 1.7-1.8"/><path id="path1203" d="M204.7 344.9c1 0 1.8.8 1.8 1.7 0 1-.8 1.8-1.8 1.8s-1.7-.8-1.7-1.8c-.1-.9.7-1.7 1.7-1.7m0 6.5c1 0 1.8.8 1.8 1.8s-.8 1.7-1.8 1.7-1.7-.8-1.7-1.7c-.1-.9.7-1.8 1.7-1.8"/><path id="path1205" d="M77.2 289.3c1 0 1.8.8 1.8 1.7 0 1-.8 1.8-1.8 1.8s-1.7-.8-1.7-1.8c0-.9.7-1.7 1.7-1.7m0 6.6c1 0 1.8.8 1.8 1.8s-.8 1.7-1.8 1.7-1.7-.8-1.7-1.7c0-1 .7-1.8 1.7-1.8"/><path id="path1207" d="M107.8 343c1 0 1.8.8 1.8 1.7 0 1-.8 1.8-1.8 1.8s-1.7-.8-1.7-1.8c0-.8.7-1.7 1.7-1.7m0 6.6c1 0 1.8.8 1.8 1.8s-.8 1.7-1.8 1.7-1.7-.8-1.7-1.7c0-1 .7-1.8 1.7-1.8"/></g><g transform="translate(-20.7 -267.25)" id="g1234"><defs id="defs1212"><path d="M119.5 349.5c0-.9.7-1.8 1.7-1.8s1.8.8 1.8 1.8-.8 1.7-1.8 1.7-1.7-.8-1.7-1.7m0-6.6c0-.9.7-1.7 1.7-1.7s1.8.8 1.8 1.7c0 1-.8 1.8-1.8 1.8s-1.7-.8-1.7-1.8m-8.8 5.4l11.5 11.5 11.5-11.5-11.5-11.5z" id="SVGID_49_"/></defs><clipPath id="SVGID_50_"><use height="100%" width="100%" y="0" x="0" id="use1214" xlink:href="#SVGID_49_" overflow="visible"/></clipPath><linearGradient gradientTransform="scale(8.1807 -8.1807) rotate(-45 -905.077 315.586)" y2="712.874" x2=".152" y1="712.874" x1="-2.68" gradientUnits="userSpaceOnUse" id="SVGID_51_"><stop id="stop1217" offset="0" stop-color="#000"/><stop id="stop1219" offset=".038" stop-color="#000509"/><stop id="stop1221" offset=".283" stop-color="#002541"/><stop id="stop1223" offset=".511" stop-color="#003d6e"/><stop id="stop1225" offset=".713" stop-color="#004f8e"/><stop id="stop1227" offset=".883" stop-color="#005aa1"/><stop id="stop1229" offset="1" stop-color="#005ea8"/></linearGradient><path id="polygon1232" clip-path="url(#SVGID_50_)" fill="url(#SVGID_51_)" d="M122.2 371.3l-23-23 23-23 23 23z"/></g><g transform="translate(-20.7 -267.25)" id="g1256"><path id="path1236" d="M98.8 291.6c0-.5.4-.9.9-.9s.9.4.9.9c0 .6-.5.8-.9.8s-.9-.2-.9-.8m0-5.6c0-.5.4-.9.9-.9s.9.4.9.9c0 .6-.5.8-.9.8-.4.1-.9-.2-.9-.8"/><path id="path1238" d="M109 284.2c1 0 1.8.8 1.8 1.7 0 1-.8 1.8-1.8 1.8s-1.7-.8-1.7-1.8c0-.9.7-1.7 1.7-1.7m0 6.5c1 0 1.8.8 1.8 1.8s-.8 1.7-1.8 1.7-1.7-.8-1.7-1.7c0-1 .7-1.8 1.7-1.8"/><path id="path1240" d="M80.8 342.1c0-.5.4-1 .9-1s1 .4 1 1-.6.9-1 .9c-.4.1-.9-.2-.9-.9m0-6.1c0-.5.4-1 .9-1s1 .4 1 1-.6.9-1 .9-.9-.3-.9-.9"/><path id="path1242" d="M91.5 348.2c1 0 1.8.8 1.8 1.7 0 1-.8 1.8-1.8 1.8s-1.7-.8-1.7-1.8c-.1-.9.7-1.7 1.7-1.7m0 6.5c1 0 1.8.8 1.8 1.8s-.8 1.7-1.8 1.7-1.7-.8-1.7-1.7c-.1-.9.7-1.8 1.7-1.8"/><path id="path1244" d="M56 285.9c0-.5.4-1 .9-1s1 .4 1 1-.6.9-1 .9c-.3.1-.9-.2-.9-.9m0-6.1c0-.5.4-1 .9-1s1 .4 1 1-.6.9-1 .9c-.3 0-.9-.3-.9-.9"/><path id="path1246" d="M39.4 273.7c0-.4.3-.8.8-.8s.8.4.8.8c0 .5-.5.7-.8.7-.3 0-.8-.2-.8-.7m0-4.9c0-.4.3-.8.8-.8s.8.4.8.8c0 .5-.5.7-.8.7-.3 0-.8-.2-.8-.7"/><path id="path1248" d="M63.7 304.8c0-.5.4-.9.9-.9s.9.4.9.9c0 .6-.5.8-.9.8-.4.1-.9-.2-.9-.8m0-5.5c0-.5.4-.9.9-.9s.9.4.9.9c0 .6-.5.8-.9.8s-.9-.3-.9-.8"/><path id="path1250" d="M45.9 304.6c0-.5.4-.9.9-.9s.9.4.9.9c0 .6-.5.8-.9.8s-.9-.2-.9-.8m0-5.5c0-.5.4-.9.9-.9s.9.4.9.9c0 .6-.5.8-.9.8s-.9-.3-.9-.8"/><path id="path1252" d="M32.1 286c0-.5.4-.9.8-.9.5 0 .9.4.9.9 0 .6-.5.8-.9.8-.3.1-.8-.2-.8-.8m0-5.5c0-.5.4-.9.8-.9.5 0 .9.4.9.9 0 .6-.5.8-.9.8-.3 0-.8-.3-.8-.8"/><path id="path1254" d="M210.7 315.9c1 0 1.8.8 1.8 1.7 0 1-.8 1.8-1.8 1.8s-1.7-.8-1.7-1.8c0-.9.7-1.7 1.7-1.7m0 6.6c1 0 1.8.8 1.8 1.8s-.8 1.7-1.8 1.7-1.7-.8-1.7-1.7c0-1 .7-1.8 1.7-1.8"/></g><g transform="translate(-20.7 -267.25)" id="g1281"><defs id="defs1259"><path d="M135.7 331.6c0-.9.7-1.8 1.7-1.8s1.8.8 1.8 1.8-.8 1.7-1.8 1.7-1.7-.7-1.7-1.7m-12.1 2.4l11.5 11.5 11.5-11.5-7.3-7.3-3.6.3-.6-4.6z" id="SVGID_52_"/></defs><clipPath id="SVGID_53_"><use height="100%" width="100%" y="0" x="0" id="use1261" xlink:href="#SVGID_52_" overflow="visible"/></clipPath><linearGradient gradientTransform="scale(8.1788 -8.1788) rotate(-45 -904.067 315.208)" y2="714.396" x2=".07" y1="714.396" x1="-2.762" gradientUnits="userSpaceOnUse" id="SVGID_54_"><stop id="stop1264" offset="0" stop-color="#000"/><stop id="stop1266" offset=".038" stop-color="#000509"/><stop id="stop1268" offset=".283" stop-color="#002541"/><stop id="stop1270" offset=".511" stop-color="#003d6e"/><stop id="stop1272" offset=".713" stop-color="#004f8e"/><stop id="stop1274" offset=".883" stop-color="#005aa1"/><stop id="stop1276" offset="1" stop-color="#005ea8"/></linearGradient><path id="polygon1279" clip-path="url(#SVGID_53_)" fill="url(#SVGID_54_)" d="M135.1 357l-23-23 23-23 23 23z"/></g><g transform="translate(-20.7 -267.25)" id="g1306"><defs id="defs1284"><path d="M135.7 325.1c0-.9.7-1.7 1.7-1.7s1.8.8 1.8 1.7c0 1-.8 1.8-1.8 1.8-1-.1-1.7-.9-1.7-1.8m-6.4-3.7l8.9 8.9 8.9-8.9-8.9-8.9z" id="SVGID_55_"/></defs><clipPath id="SVGID_56_"><use height="100%" width="100%" y="0" x="0" id="use1286" xlink:href="#SVGID_55_" overflow="visible"/></clipPath><linearGradient gradientTransform="scale(6.8592 -6.8592) rotate(-45 -911.583 301.837)" y2="714.092" x2="-4.775" y1="714.092" x1="-7.607" gradientUnits="userSpaceOnUse" id="SVGID_57_"><stop id="stop1289" offset="0" stop-color="#000"/><stop id="stop1291" offset=".038" stop-color="#000509"/><stop id="stop1293" offset=".283" stop-color="#002541"/><stop id="stop1295" offset=".511" stop-color="#003d6e"/><stop id="stop1297" offset=".713" stop-color="#004f8e"/><stop id="stop1299" offset=".883" stop-color="#005aa1"/><stop id="stop1301" offset="1" stop-color="#005ea8"/></linearGradient><path id="polygon1304" clip-path="url(#SVGID_56_)" fill="url(#SVGID_57_)" d="M138.1 339.1l-17.7-17.7 17.7-17.7 17.7 17.7z"/></g><g transform="translate(-20.7 -267.25)" id="g1331"><defs id="defs1309"><path transform="rotate(-45.009 143.411 354.649)" id="SVGID_58_" d="M135.3 346.5h16.3v16.3h-16.3z"/></defs><clipPath id="SVGID_59_"><use height="100%" width="100%" y="0" x="0" id="use1311" xlink:href="#SVGID_58_" overflow="visible"/></clipPath><linearGradient gradientTransform="scale(6.962 -6.962) rotate(-45 -912.615 301.856)" y2="712.276" x2="-1.849" y1="712.276" x1="-4.681" gradientUnits="userSpaceOnUse" id="SVGID_60_"><stop id="stop1314" offset="0" stop-color="#000"/><stop id="stop1316" offset=".038" stop-color="#000509"/><stop id="stop1318" offset=".283" stop-color="#002541"/><stop id="stop1320" offset=".511" stop-color="#003d6e"/><stop id="stop1322" offset=".713" stop-color="#004f8e"/><stop id="stop1324" offset=".883" stop-color="#005aa1"/><stop id="stop1326" offset="1" stop-color="#005ea8"/></linearGradient><path id="polygon1329" clip-path="url(#SVGID_59_)" fill="url(#SVGID_60_)" d="M143.4 377.7l-23-23 23-23.1 23 23.1z"/></g><path id="path1333" d="M500.4 14.75v56.1c0 27.7-17.4 40.2-43.9 40.2s-43.9-12.6-43.9-40.2v-56.1h34.5v52.8c0 7.4.3 14 9.4 14 9.2 0 9.4-6.5 9.4-14v-52.8z"/><path id="path1335" d="M554.4 75.25s-5.7-24.9-6.3-28.9h-1.3l-6.3 28.9zm-22.8 34.3h-36.5l32.9-94.8h38.1l33.8 94.8h-36.5l-3.1-11.8h-26z"/><path id="path1337" d="M575.6 18.75h.6c.3 0 .6 0 .7-.1.3-.1.4-.3.4-.6s-.1-.5-.2-.6c-.2-.1-.5-.2-.9-.2h-.6zm2.9 2.6h-1v-.1V20.55c0-.5-.1-.8-.4-.9-.2-.1-.4-.1-.8-.1h-.5v1.8h-1v-4.8h1.7c.6 0 1 .1 1.3.2.5.2.8.6.8 1.3 0 .5-.2.8-.5 1-.1.1-.2.1-.3.1.2.1.3.2.4.4.2.3.3.5.3.8v.8zm-2.1-5.9c-1 0-1.8.3-2.5 1s-1 1.5-1 2.5.3 1.8 1 2.5 1.5 1 2.5 1 1.8-.3 2.5-1 1-1.5 1-2.5-.3-1.8-1-2.5c-.7-.6-1.6-1-2.5-1m0 7.8c-1.2 0-2.2-.4-3-1.3-.8-.8-1.3-1.9-1.3-3.1 0-1.2.4-2.2 1.3-3 .8-.8 1.9-1.3 3-1.3 1.2 0 2.2.4 3 1.3.8.8 1.3 1.9 1.3 3 0 1.2-.4 2.2-1.3 3.1-.8.9-1.8 1.3-3 1.3"/></svg>