<?xml version="1.0" encoding="UTF-8" standalone="no"?>
<svg
   xmlns:dc="http://purl.org/dc/elements/1.1/"
   xmlns:cc="http://creativecommons.org/ns#"
   xmlns:rdf="http://www.w3.org/1999/02/22-rdf-syntax-ns#"
   xmlns:svg="http://www.w3.org/2000/svg"
   xmlns="http://www.w3.org/2000/svg"
   xmlns:sodipodi="http://sodipodi.sourceforge.net/DTD/sodipodi-0.dtd"
   xmlns:inkscape="http://www.inkscape.org/namespaces/inkscape"
   inkscape:version="1.0 (4035a4fb49, 2020-05-01)"
   sodipodi:docname="siemens.svg"
   id="svg76"
   version="1.1"
   clip-rule="evenodd"
   fill-rule="evenodd"
   image-rendering="optimizeQuality"
   text-rendering="geometricPrecision"
   shape-rendering="geometricPrecision"
   viewBox="0 0 195.724 31.141001"
   height="31.141001mm"
   width="195.724mm">
  <metadata
     id="metadata80">
    <rdf:RDF>
      <cc:Work
         rdf:about="">
        <dc:format>image/svg+xml</dc:format>
        <dc:type
           rdf:resource="http://purl.org/dc/dcmitype/StillImage" />
        <dc:title></dc:title>
      </cc:Work>
    </rdf:RDF>
  </metadata>
  <sodipodi:namedview
     inkscape:current-layer="svg76"
     inkscape:window-maximized="0"
     inkscape:window-y="353"
     inkscape:window-x="3046"
     inkscape:cy="59.51244"
     inkscape:cx="371.58047"
     inkscape:zoom="1.4060714"
     fit-margin-bottom="0"
     fit-margin-right="0"
     fit-margin-left="0"
     fit-margin-top="0"
     showgrid="false"
     id="namedview78"
     inkscape:window-height="480"
     inkscape:window-width="801"
     inkscape:pageshadow="2"
     inkscape:pageopacity="0"
     guidetolerance="10"
     gridtolerance="10"
     objecttolerance="10"
     borderopacity="1"
     bordercolor="#666666"
     pagecolor="#ffffff" />
  <defs
     id="defs71">
    <style
       id="style69">.fil0{fill:#099}</style>
  </defs>
  <g
     transform="translate(-6.686,-9.254)"
     id="Ebene_x0020_1">
    <path
       id="path73"
       d="m 200.121,10.347 v 5.829 c -3.02,-1.14 -5.708,-1.717 -8.062,-1.717 -1.393,0 -2.503,0.258 -3.338,0.757 -0.834,0.503 -1.26,1.123 -1.26,1.854 0,0.972 0.942,1.837 2.839,2.611 l 5.48,2.668 c 4.431,2.112 6.63,4.917 6.63,8.44 0,2.93 -1.166,5.265 -3.52,6.994 -2.335,1.747 -5.48,2.612 -9.394,2.612 -1.807,0 -3.429,-0.078 -4.87,-0.241 -1.441,-0.155 -3.097,-0.474 -4.934,-0.93 v -6.1 c 3.368,1.14 6.435,1.717 9.197,1.717 3.295,0 4.934,-0.955 4.934,-2.882 0,-0.96 -0.67,-1.734 -2.034,-2.34 l -6.088,-2.594 c -2.245,-1.016 -3.914,-2.246 -5.007,-3.704 -1.075,-1.471 -1.622,-3.158 -1.622,-5.085 0,-2.697 1.136,-4.87 3.382,-6.522 2.262,-1.639 5.265,-2.46 8.999,-2.46 1.213,0 2.611,0.107 4.16,0.305 a 55.43,55.43 0 0 1 4.508,0.788 z m -172.399,0 v 5.829 c -3.02,-1.14 -5.704,-1.717 -8.057,-1.717 -1.398,0 -2.504,0.258 -3.338,0.757 -0.835,0.503 -1.26,1.123 -1.26,1.854 0,0.972 0.954,1.837 2.851,2.611 l 5.48,2.668 c 4.415,2.112 6.617,4.917 6.617,8.44 0,2.93 -1.17,5.265 -3.506,6.994 -2.353,1.747 -5.48,2.612 -9.408,2.612 -1.807,0 -3.433,-0.078 -4.874,-0.241 -1.441,-0.155 -3.08,-0.474 -4.93,-0.93 v -6.1 c 3.382,1.14 6.449,1.717 9.193,1.717 3.295,0 4.934,-0.955 4.934,-2.882 0,-0.96 -0.666,-1.734 -2.017,-2.34 L 13.32,27.025 C 11.057,26.009 9.388,24.779 8.313,23.321 7.22,21.85 6.686,20.163 6.686,18.236 c 0,-2.697 1.128,-4.87 3.386,-6.522 2.246,-1.639 5.252,-2.46 8.986,-2.46 1.226,0 2.607,0.107 4.173,0.305 1.549,0.211 3.05,0.47 4.491,0.788 z M 34.003,9.8 h 8.926 v 30.048 h -8.926 z m 37.684,0 v 5.554 H 58.424 v 6.663 h 11.503 v 5.008 H 58.424 v 6.994 h 13.534 v 5.83 H 49.834 V 9.8 Z m 41.671,0 v 30.048 h -8.333 V 20.03 L 96.379,40.124 H 91.234 L 82.919,20.03 V 39.848 H 76.892 V 9.8 H 87.788 L 95.226,28.195 103.008,9.8 Z m 28.745,0 v 5.554 h -13.19 v 6.663 h 11.503 v 5.008 h -11.503 v 6.994 h 13.461 v 5.83 H 120.25 V 9.8 Z m 31.321,0 v 30.048 h -9.468 L 153.331,20.576 v 19.272 h -6.023 V 9.8 h 9.744 l 10.35,18.941 V 9.801 Z"
       class="fil0" />
  </g>
</svg>
